<?xml version="1.0" encoding="UTF-8"?>
<!DOCTYPE svg PUBLIC "-//W3C//DTD SVG 1.1//EN" "http://www.w3.org/Graphics/SVG/1.1/DTD/svg11.dtd">
<!-- Creator: CorelDRAW -->
<svg xmlns="http://www.w3.org/2000/svg" xml:space="preserve" width="34.3742mm" height="34.3732mm" version="1.1" style="shape-rendering:geometricPrecision; text-rendering:geometricPrecision; image-rendering:optimizeQuality; fill-rule:evenodd; clip-rule:evenodd"
viewBox="0 0 3423.22 3423.12"
 xmlns:xlink="http://www.w3.org/1999/xlink"
 xmlns:xodm="http://www.corel.com/coreldraw/odm/2003">
 <defs>
  <style type="text/css">
   <![CDATA[
    .fil1 {fill:white}
    .fil0 {fill:white;fill-rule:nonzero}
   ]]>
  </style>
 </defs>
 <g id="Layer_x0020_1">
  <metadata id="CorelCorpID_0Corel-Layer"/>
  <g id="_105553203146752">
   <path class="fil0" d="M1680.68 0c-460.52,8.13 -876.67,198.04 -1179.7,501.11 -209.23,209.33 -364.67,472.61 -443.33,767.24 -35.52,132.87 -55.4,272.23 -57.65,415.75l562.39 0c2.18,-93.19 15.5,-183.69 38.66,-270.3 25.91,-97.18 64.31,-189.26 113.33,-274.49 -10.03,-7.78 -19.67,-16.27 -28.88,-25.47 -118.67,-118.67 -118.67,-311.02 0,-429.69 118.73,-118.57 310.97,-118.57 429.63,0 9.33,9.33 17.94,19.12 25.79,29.3 159.8,-91.56 343.67,-145.91 539.76,-151.07l0 -562.37z"/>
   <path class="fil0" d="M1735.93 3423.12l1687.29 0 -501.44 -501.28c209.22,-209.31 364.59,-472.66 443.57,-767.24 35.42,-132.49 55.29,-271.43 57.63,-414.63l-562.39 0c-2.27,92.86 -15.57,182.93 -38.63,269.04 -25.74,96.38 -63.73,187.76 -112.17,272.41 10.15,7.84 19.91,16.41 29.22,25.71 118.66,118.67 118.66,311.02 0,429.69 -118.66,118.67 -310.9,118.67 -429.63,0 -9.12,-9.12 -17.55,-18.68 -25.27,-28.61 -161.97,93.26 -348.85,148.2 -548.19,152.36l0 562.55z"/>
   <path class="fil0" d="M3140.33 1684.72c-4.16,-234.08 -66.14,-470.54 -191.38,-687.59 -11.51,-19.93 -23.44,-39.46 -35.75,-58.63 -119.33,97.23 -295.16,90.24 -406.41,-20.97 -111.35,-111.36 -118.21,-287.62 -20.58,-406.94 -125.43,-80.77 -262.28,-141.02 -405.06,-179.23 -112.36,-30.08 -228.28,-46.53 -345.22,-48.65l0 562.51c67.7,1.92 134.8,11.82 199.91,29.28 214,57.37 406.34,196.56 526.01,403.78 74.23,128.4 111.78,267.9 115.83,406.43l562.66 0z"/>
   <path class="fil0" d="M282.69 1739.34c4.35,233.79 66.34,469.67 191.37,686.63 11.74,20.35 23.92,40.27 36.5,59.82 119.26,-93.13 291.9,-84.9 401.62,24.75 109.77,109.78 117.97,282.63 24.64,401.85 125.4,80.72 262.18,140.95 404.78,179.21 110.35,29.52 224.3,45.9 339.08,48.51l0 -562.63c-65.48,-2.43 -130.4,-12.21 -193.52,-29.1 -214.24,-57.44 -406.34,-196.52 -526.01,-403.71 -74.01,-128.03 -111.56,-267.21 -115.81,-405.34l-562.66 0z"/>
   <path class="fil1" d="M2919.29 503.52c109.13,109.13 109.13,286.02 0,395.16 -109.12,109.13 -285.91,109.13 -395.1,0 -109.13,-109.14 -109.13,-286.03 0,-395.16 109.19,-109.04 285.98,-109.04 395.1,0z"/>
   <path class="fil1" d="M503.46 2919.43c-109.13,-109.13 -109.13,-286.16 0,-395.29 109.13,-109 286.16,-109 395.29,0 109.13,109.13 109.13,286.16 0,395.29 -109.13,109.14 -286.16,109.14 -395.29,0z"/>
   <path class="fil1" d="M701.14 701.17c109.84,-109.89 287.91,-109.89 397.52,0 109.91,109.74 109.91,287.78 0,397.66 -109.62,109.79 -287.68,109.79 -397.52,0 -109.91,-109.88 -109.91,-287.92 0,-397.66z"/>
   <path class="fil1" d="M2721.86 2721.79c-109.9,109.78 -287.91,109.78 -397.82,0 -109.62,-109.89 -109.62,-287.93 0,-397.67 109.91,-109.79 287.92,-109.79 397.82,0 109.68,109.74 109.68,287.78 0,397.67z"/>
   <path class="fil1" d="M938.27 3078.36c189.56,107.61 403.82,176.8 632.18,197.03l0 142.09c-292.45,-23.88 -564.33,-121.34 -796.44,-273.72 57.62,-9.94 113.66,-31.69 164.26,-65.4zm-790.93 -1225.85c20.4,228.29 89.58,442.53 197.19,632.15 -33.71,50.69 -55.32,106.77 -65.37,164.36 -152.4,-232.36 -249.96,-504.05 -273.63,-796.51l141.81 0z"/>
   <path class="fil1" d="M2484.48 344.6c-189.62,-107.67 -403.81,-176.95 -632.18,-197.18l0 -141.95c292.46,23.88 564.27,121.34 796.63,273.73 -57.56,9.93 -113.91,31.68 -164.45,65.4zm791.12 1225.84c-20.34,-228.33 -89.76,-442.58 -197.19,-632.29 33.53,-50.54 55.38,-106.63 65.19,-164.31 152.34,232.45 249.96,504.05 273.81,796.6l-141.81 0z"/>
   <path class="fil1" d="M1711.47 1822.19c-61.07,0 -110.64,-49.55 -110.64,-110.79 0,-61.09 49.57,-110.64 110.64,-110.64 61.13,0 110.64,49.55 110.64,110.64 0,61.24 -49.51,110.79 -110.64,110.79zm-345.23 0c-61.14,0 -110.64,-49.55 -110.64,-110.79 0,-61.09 49.5,-110.64 110.64,-110.64 61.13,0 110.63,49.55 110.63,110.64 0,61.24 -49.5,110.79 -110.63,110.79zm690.28 0c-61.13,0 -110.64,-49.55 -110.64,-110.79 0,-61.09 49.51,-110.64 110.64,-110.64 61.07,0 110.58,49.55 110.58,110.64 0,61.24 -49.51,110.79 -110.58,110.79z"/>
  </g>
 </g>
</svg>
