<?xml version="1.0" encoding="UTF-8"?>
<!DOCTYPE svg PUBLIC "-//W3C//DTD SVG 1.1//EN" "http://www.w3.org/Graphics/SVG/1.1/DTD/svg11.dtd">
<!-- Creator: CorelDRAW -->
<svg xmlns="http://www.w3.org/2000/svg" xml:space="preserve" width="68.0929mm" height="47.2384mm" version="1.1" style="shape-rendering:geometricPrecision; text-rendering:geometricPrecision; image-rendering:optimizeQuality; fill-rule:evenodd; clip-rule:evenodd"
viewBox="0 0 6795.05 4713.96"
 xmlns:xlink="http://www.w3.org/1999/xlink"
 xmlns:xodm="http://www.corel.com/coreldraw/odm/2003">
 <defs>
  <style type="text/css">
   <![CDATA[
    .fil7 {fill:#165F9F}
    .fil5 {fill:#167B6B}
    .fil10 {fill:#3B9DF1}
    .fil9 {fill:#44B8A4}
    .fil6 {fill:#56167B}
    .fil8 {fill:#9E30DE}
    .fil0 {fill:white;fill-rule:nonzero}
    .fil3 {fill:#44B8A4;fill-rule:nonzero}
    .fil4 {fill:#5248BE;fill-rule:nonzero}
    .fil2 {fill:#7B68EA;fill-rule:nonzero}
    .fil1 {fill:url(#id0);fill-rule:nonzero}
   ]]>
  </style>
  <linearGradient id="id0" gradientUnits="userSpaceOnUse" x1="2539.91" y1="-7336.42" x2="2539.91" y2="3213.41">
   <stop offset="0" style="stop-opacity:1; stop-color:#7D57A2"/>
   <stop offset="0.988235" style="stop-opacity:1; stop-color:#00BDF2"/>
   <stop offset="1" style="stop-opacity:1; stop-color:#00BDF2"/>
  </linearGradient>
 </defs>
 <g id="Layer_x0020_1">
  <metadata id="CorelCorpID_0Corel-Layer"/>
  <g id="_105553208210368">
   <g>
    <path class="fil0" d="M288.78 4349.38c58.81,0 101.93,-10.45 129.38,-30.05 27.43,-19.61 40.51,-48.36 40.51,-84.94 0,-22.21 -3.92,-40.52 -13.07,-56.19 -9.15,-15.68 -22.21,-30.05 -39.2,-43.12 -16.98,-11.76 -37.9,-23.52 -62.73,-35.29 -24.83,-10.45 -52.26,-20.9 -83.63,-31.35 -31.35,-11.77 -61.41,-23.52 -90.15,-37.9 -30.07,-13.06 -54.89,-30.06 -77.1,-49.66 -22.22,-19.6 -40.52,-44.43 -53.58,-71.87 -14.38,-27.44 -20.92,-61.42 -20.92,-100.62 0,-82.33 28.75,-146.35 84.94,-193.39 56.19,-45.73 133.28,-69.25 231.3,-69.25 56.18,0 107.15,6.53 151.58,18.29 43.12,13.06 78.41,27.44 103.23,41.81l-50.97 133.29c-30.05,-16.99 -61.41,-28.75 -96.7,-37.9 -35.28,-9.14 -71.86,-13.06 -109.76,-13.06 -44.43,0 -78.41,9.14 -103.23,27.44 -24.83,18.29 -37.89,44.43 -37.89,77.1 0,19.6 3.92,36.58 13.06,50.95 7.83,14.38 19.6,27.45 35.29,39.21 14.37,11.77 32.66,22.21 53.57,31.36 19.61,9.15 41.82,18.29 66.65,27.44 43.12,15.68 81.01,31.36 114.99,47.04 32.67,16.98 61.42,35.28 84.94,57.5 22.21,22.21 40.51,48.35 52.26,78.4 11.77,30.06 18.3,66.65 18.3,109.77 0,82.33 -28.75,145.05 -86.25,189.47 -58.81,45.74 -143.74,67.95 -254.82,67.95 -37.89,0 -71.87,-2.6 -101.93,-6.53 -31.35,-5.23 -58.8,-11.76 -82.32,-18.3 -24.83,-6.53 -45.73,-14.37 -62.73,-22.2 -16.98,-6.54 -31.35,-13.07 -41.81,-19.6l48.35 -134.6c23.52,13.06 54.88,26.14 95.39,39.2 40.52,13.07 88.86,19.6 145.05,19.6z"/>
    <path id="_1" class="fil0" d="M1385.15 4129.85c0,53.58 -7.84,103.23 -23.52,147.66 -15.68,44.44 -37.89,82.33 -66.64,113.69 -28.75,31.35 -62.72,56.18 -103.23,73.18 -40.51,16.98 -86.24,26.14 -134.59,26.14 -48.35,0 -92.79,-9.15 -133.29,-26.14 -40.51,-16.99 -74.48,-41.82 -103.23,-73.18 -28.75,-31.36 -50.96,-69.25 -66.65,-113.69 -16.97,-44.43 -24.82,-94.08 -24.82,-147.66 0,-53.58 7.84,-103.23 24.82,-147.66 15.69,-43.12 37.9,-81.02 67.96,-112.37 28.75,-31.36 62.72,-56.19 103.23,-73.18 40.51,-16.99 83.63,-24.83 131.98,-24.83 48.35,0 92.78,7.83 133.28,24.83 40.51,16.98 74.48,41.81 103.23,73.18 28.75,31.35 50.96,69.25 67.95,112.37 15.68,44.43 23.52,94.08 23.52,147.66zm-162.03 0c0,-67.95 -14.37,-121.53 -43.12,-162.03 -30.06,-39.2 -70.57,-58.81 -122.83,-58.81 -52.27,0 -92.79,19.61 -121.53,58.81 -30.07,40.51 -44.44,94.08 -44.44,162.03 0,69.25 14.37,122.83 44.44,163.35 28.74,40.51 69.25,60.1 121.53,60.1 52.26,0 92.78,-19.6 122.83,-60.1 28.75,-40.52 43.12,-94.09 43.12,-163.35z"/>
    <path id="_2" class="fil0" d="M1786.32 4485.28c-47.05,-1.31 -86.25,-6.54 -116.31,-15.68 -31.36,-9.15 -56.19,-23.53 -74.48,-41.82 -18.29,-16.98 -31.36,-39.2 -37.89,-66.64 -7.84,-26.14 -11.77,-56.19 -11.77,-90.17l0 -786.65 158.12 -26.14 0 782.74c0,19.6 1.31,35.28 5.23,48.35 2.6,13.06 7.83,23.52 15.68,32.67 7.84,9.14 18.29,16.98 32.67,20.91 13.06,5.22 30.06,9.15 50.95,11.76l-22.2 130.68z"/>
    <path id="_3" class="fil0" d="M2497.19 4451.3c-30.06,7.84 -70.56,15.68 -118.91,24.83 -48.35,7.84 -101.93,11.77 -160.73,11.77 -54.88,0 -100.62,-7.84 -137.2,-23.52 -37.9,-15.68 -66.65,-37.9 -88.86,-65.34 -22.21,-27.43 -39.21,-61.41 -48.35,-100.61 -9.14,-37.9 -14.37,-81.02 -14.37,-126.75l0 -382.88 158.11 0 0 358.05c0,73.18 10.46,125.44 32.67,156.8 20.91,31.36 57.5,47.04 111.08,47.04 19.6,0 39.2,-1.31 61.41,-2.61 20.91,-1.3 36.59,-3.92 47.04,-6.53l0 -552.75 158.12 0 0 662.51z"/>
    <path id="_4" class="fil0" d="M2925.79 4349.38c58.81,0 101.93,-10.45 129.38,-30.05 27.43,-19.61 40.51,-48.36 40.51,-84.94 0,-22.21 -3.92,-40.52 -13.07,-56.19 -9.14,-15.68 -22.21,-30.05 -39.2,-43.12 -16.98,-11.76 -37.89,-23.52 -62.72,-35.29 -24.84,-10.45 -52.27,-20.9 -83.63,-31.35 -31.36,-11.77 -61.41,-23.52 -90.16,-37.9 -30.06,-13.06 -54.88,-30.06 -77.1,-49.66 -22.22,-19.6 -40.51,-44.43 -53.58,-71.87 -14.38,-27.44 -20.91,-61.42 -20.91,-100.62 0,-82.33 28.75,-146.35 84.93,-193.39 56.19,-45.73 133.29,-69.25 231.3,-69.25 56.18,0 107.16,6.53 151.58,18.29 43.12,13.06 78.41,27.44 103.23,41.81l-50.96 133.29c-30.06,-16.99 -61.42,-28.75 -96.7,-37.9 -35.29,-9.14 -71.87,-13.06 -109.77,-13.06 -44.43,0 -78.41,9.14 -103.23,27.44 -24.83,18.29 -37.89,44.43 -37.89,77.1 0,19.6 3.92,36.58 13.06,50.95 7.84,14.38 19.6,27.45 35.29,39.21 14.37,11.77 32.67,22.21 53.57,31.36 19.61,9.15 41.82,18.29 66.65,27.44 43.13,15.68 81.01,31.36 114.99,47.04 32.67,16.98 61.42,35.28 84.94,57.5 22.21,22.21 40.51,48.35 52.27,78.4 11.76,30.06 18.29,66.65 18.29,109.77 0,82.33 -28.75,145.05 -86.24,189.47 -58.81,45.74 -143.75,67.95 -254.83,67.95 -37.89,0 -71.86,-2.6 -101.93,-6.53 -31.35,-5.23 -58.8,-11.76 -82.32,-18.3 -24.83,-6.53 -45.73,-14.37 -62.72,-22.2 -16.99,-6.54 -31.36,-13.07 -41.82,-19.6l48.35 -134.6c23.53,13.06 54.88,26.14 95.4,39.2 40.51,13.07 88.85,19.6 145.04,19.6z"/>
    <path id="_5" class="fil0" d="M3857.51 4133.78c0,-70.57 -15.69,-125.45 -47.05,-164.64 -32.67,-39.21 -83.62,-58.81 -154.2,-58.81 -14.37,0 -30.05,0 -45.72,1.31 -16.99,1.3 -32.67,5.22 -48.36,9.14l0 390.71c14.38,9.15 32.67,18.3 56.19,26.15 22.21,9.14 47.04,13.06 73.18,13.06 57.5,0 99.31,-19.6 126.75,-58.81 26.14,-39.2 39.21,-91.47 39.21,-158.11zm162.03 -2.62c0,52.27 -6.54,100.62 -19.6,143.74 -14.38,43.13 -33.98,81.02 -58.81,112.38 -24.83,31.35 -56.19,56.19 -94.08,73.18 -37.89,16.98 -81.02,26.13 -129.37,26.13 -32.67,0 -61.42,-3.91 -88.85,-11.76 -27.44,-7.84 -49.67,-16.98 -66.65,-26.13l0 265.26 -158.11 0 0 -902.96c32.66,-9.14 71.87,-16.98 118.91,-24.83 47.04,-7.84 96.7,-11.77 148.97,-11.77 53.58,0 101.93,7.84 145.05,24.83 43.12,16.99 79.71,40.52 109.77,70.57 30.06,31.35 52.27,69.25 69.25,112.37 15.68,44.43 23.52,94.08 23.52,148.97z"/>
    <path id="_6" class="fil0" d="M4182.87 4472.21l0 -987.89 158.11 -26.14 0 338.45c16.99,-6.54 37.9,-11.77 61.42,-15.69 22.21,-3.91 45.73,-6.54 67.96,-6.54 54.88,0 100.61,7.84 137.2,22.22 35.28,15.68 64.03,36.58 86.25,64.03 22.2,27.44 37.88,61.41 47.03,99.31 9.15,37.9 13.07,81.02 13.07,128.06l0 384.17 -158.12 0 0 -359.35c0,-36.59 -2.61,-67.95 -6.54,-94.09 -5.22,-24.83 -13.06,-45.72 -23.52,-62.72 -11.76,-15.68 -26.13,-27.43 -44.43,-35.29 -18.29,-6.53 -40.51,-10.45 -67.95,-10.45 -20.91,0 -41.81,2.61 -64.03,6.53 -22.22,3.92 -37.9,7.84 -48.36,11.78l0 543.59 -158.11 0z"/>
    <path id="_7" class="fil0" d="M4905.5 4133.78c0,-60.11 9.14,-112.38 27.44,-158.12 16.98,-45.73 40.51,-83.62 70.56,-113.68 30.05,-30.06 64.03,-52.27 101.92,-67.95 37.9,-14.38 77.11,-22.22 117.61,-22.22 94.08,0 167.27,28.75 220.84,87.56 52.27,58.8 78.41,145.05 78.41,261.34 0,9.15 0,18.3 0,28.75 -1.31,11.76 -1.31,20.91 -2.61,30.06l-450.83 0c3.92,54.88 23.52,96.7 58.81,126.75 33.98,30.05 83.62,45.73 148.96,45.73 37.9,0 73.18,-3.92 105.85,-10.46 31.36,-6.53 56.2,-14.37 74.48,-22.2l20.92 129.36c-9.15,3.92 -20.92,9.15 -35.29,13.07 -15.68,5.22 -32.66,9.14 -52.26,14.37 -19.61,3.92 -41.82,6.53 -64.04,9.15 -22.21,2.6 -45.74,3.92 -69.26,3.92 -60.1,0 -112.37,-9.15 -156.8,-27.44 -44.43,-16.99 -81.02,-41.82 -109.77,-74.48 -28.74,-31.36 -49.66,-69.26 -64.03,-112.38 -14.38,-43.12 -20.91,-90.16 -20.91,-141.12zm458.66 -70.57c0,-22.2 -2.6,-43.12 -9.15,-62.72 -6.53,-19.6 -14.37,-36.58 -26.13,-50.96 -11.77,-14.37 -26.14,-24.83 -43.13,-33.97 -16.98,-7.84 -37.89,-11.77 -61.41,-11.77 -24.83,0 -45.73,3.92 -64.04,13.06 -18.29,9.15 -33.97,22.22 -45.73,36.59 -13.07,14.37 -23.52,31.36 -30.05,50.96 -6.54,19.6 -11.77,39.2 -14.38,58.8l294.01 0z"/>
    <path id="_8" class="fil0" d="M6078.95 3931.22c-13.07,-3.92 -31.36,-9.15 -53.58,-14.38 -23.52,-3.91 -50.96,-6.53 -81.02,-6.53 -16.98,0 -35.29,1.31 -54.88,5.23 -19.6,3.92 -33.97,6.53 -41.81,9.14l0 547.52 -158.12 0 0 -650.75c30.06,-11.77 69.25,-22.22 115,-32.67 45.73,-9.15 95.39,-14.38 151.58,-14.38 10.45,0 22.21,0 36.58,1.31 14.37,1.32 27.44,3.92 41.82,5.23 14.37,2.61 27.44,5.23 40.51,7.84 13.06,3.92 23.52,6.53 31.36,9.15l-27.44 133.28z"/>
    <path id="_9" class="fil0" d="M6178.27 4133.78c0,-60.11 9.14,-112.38 27.44,-158.12 16.98,-45.73 40.51,-83.62 70.56,-113.68 30.05,-30.06 64.03,-52.27 101.92,-67.95 37.9,-14.38 77.11,-22.22 117.61,-22.22 94.08,0 167.27,28.75 220.84,87.56 52.27,58.8 78.41,145.05 78.41,261.34 0,9.15 0,18.3 0,28.75 -1.31,11.76 -1.31,20.91 -2.61,30.06l-450.83 0c3.92,54.88 23.52,96.7 58.81,126.75 33.98,30.05 83.62,45.73 148.96,45.73 37.9,0 73.19,-3.92 105.85,-10.46 31.36,-6.53 56.2,-14.37 74.48,-22.2l20.92 129.36c-9.15,3.92 -20.92,9.15 -35.29,13.07 -15.68,5.22 -32.66,9.14 -52.26,14.37 -19.61,3.92 -41.82,6.53 -64.04,9.15 -22.21,2.6 -45.74,3.92 -69.26,3.92 -60.1,0 -112.37,-9.15 -156.8,-27.44 -44.43,-16.99 -81.02,-41.82 -109.77,-74.48 -28.74,-31.36 -49.66,-69.26 -64.03,-112.38 -14.38,-43.12 -20.91,-90.16 -20.91,-141.12zm458.66 -70.57c0,-22.2 -2.6,-43.12 -9.14,-62.72 -6.54,-19.6 -14.38,-36.58 -26.14,-50.96 -11.77,-14.37 -26.14,-24.83 -43.13,-33.97 -16.98,-7.84 -37.89,-11.77 -61.41,-11.77 -24.83,0 -45.73,3.92 -64.04,13.06 -18.29,9.15 -33.97,22.22 -45.73,36.59 -13.07,14.37 -23.52,31.36 -30.05,50.96 -6.54,19.6 -11.77,39.2 -14.38,58.8l294.01 0z"/>
   </g>
   <g>
    <path class="fil1" d="M3397.5 0c-473.73,0 -902.57,191.99 -1212.97,502.44 -209.66,209.75 -365.4,473.58 -444.25,768.81 -37.84,141.57 -57.98,290.5 -57.98,443.96l563.42 0c0,-103.05 13.59,-202.97 39.06,-298.22 52.89,-198.19 157.51,-375.3 298.33,-516.17 208.38,-208.38 496.4,-337.41 814.38,-337.41l0 -563.41z"/>
    <path class="fil2" d="M3397.5 3430.42l1715.26 0 -502.47 -502.3c209.66,-209.75 365.34,-473.62 444.49,-768.81 37.84,-141.57 57.98,-290.49 57.98,-444.11l-563.42 0c0,103.2 -13.59,203.12 -39.06,298.23 -52.95,198.19 -157.51,375.31 -298.39,516.18 -208.32,208.38 -496.34,337.39 -814.38,337.39l0 563.42z"/>
    <path class="fil3" d="M4829.53 1715.21c0.24,-243.25 -61.74,-489.96 -192.02,-715.74 -197.77,-342.42 -515.51,-572.36 -869.57,-667.13 -120.45,-32.22 -244.97,-48.85 -370.44,-48.99l0 563.55c76.11,0 151.74,10.09 224.82,29.71 214.46,57.48 407.2,196.97 527.1,404.59 79.15,136.93 116.69,286.47 116.45,434.01l563.67 0z"/>
    <path class="fil4" d="M1965.53 1715.21c-0.24,243.4 61.74,489.97 192.02,716.04 197.53,342.28 515.57,572.08 869.33,666.98 120.45,32.22 245.21,48.86 370.62,48.99l0 -563.55c-76.05,-0.14 -151.62,-10.19 -224.76,-29.76 -214.7,-57.57 -407.2,-196.91 -527.1,-404.54 -79.15,-136.93 -116.7,-286.61 -116.45,-434.16l-563.67 0z"/>
    <path class="fil5" d="M4607.79 504.85c109.35,109.35 109.35,286.61 0,395.97 -109.34,109.35 -286.5,109.35 -395.91,0 -109.35,-109.36 -109.35,-286.62 0,-395.97 109.41,-109.26 286.57,-109.26 395.91,0z"/>
    <path class="fil6" d="M2187.02 2925.71c-109.35,-109.35 -109.35,-286.75 0,-396.1 109.35,-109.22 286.75,-109.22 396.1,0 109.35,109.35 109.35,286.75 0,396.1 -109.35,109.36 -286.75,109.36 -396.1,0z"/>
    <path class="fil7" d="M2385.1 702.91c110.07,-110.12 288.5,-110.12 398.34,0 110.14,109.97 110.14,288.37 0,398.47 -109.84,110.02 -288.27,110.02 -398.34,0 -110.14,-110.11 -110.14,-288.51 0,-398.47z"/>
    <path class="fil7" d="M4409.96 2727.66c-110.13,110.01 -288.5,110.01 -398.63,0 -109.84,-110.12 -109.84,-288.52 0,-398.48 110.14,-110.02 288.51,-110.02 398.63,0 109.9,109.97 109.9,288.37 0,398.48z"/>
    <path class="fil8" d="M2622.71 3084.96c189.95,107.83 404.65,177.16 633.47,197.44l0 142.38c-293.05,-23.93 -565.48,-121.59 -798.07,-274.29 57.74,-9.96 113.89,-31.75 164.6,-65.53zm-792.55 -1228.37c20.44,228.76 89.76,443.44 197.6,633.44 -33.78,50.79 -55.43,106.99 -65.5,164.69 -152.71,-232.83 -250.48,-505.08 -274.2,-798.14l142.1 0z"/>
    <path class="fil9" d="M4172.1 345.61c-190.01,-107.89 -404.64,-177.31 -633.47,-197.59l0 -142.24c293.06,23.93 565.43,121.59 798.26,274.3 -57.68,9.95 -114.14,31.74 -164.78,65.53zm792.74 1228.36c-20.38,-228.8 -89.94,-443.49 -197.6,-633.58 33.6,-50.64 55.49,-106.85 65.32,-164.64 152.65,232.92 250.48,505.08 274.38,798.23l-142.1 0z"/>
    <path class="fil10" d="M3397.5 1826.22c-61.19,0 -110.87,-49.66 -110.87,-111.02 0,-61.21 49.68,-110.87 110.87,-110.87 61.25,0 110.87,49.66 110.87,110.87 0,61.36 -49.62,111.02 -110.87,111.02zm-345.94 0c-61.26,0 -110.87,-49.66 -110.87,-111.02 0,-61.21 49.61,-110.87 110.87,-110.87 61.25,0 110.86,49.66 110.86,110.87 0,61.36 -49.61,111.02 -110.86,111.02zm691.69 0c-61.25,0 -110.87,-49.66 -110.87,-111.02 0,-61.21 49.62,-110.87 110.87,-110.87 61.19,0 110.81,49.66 110.81,110.87 0,61.36 -49.62,111.02 -110.81,111.02z"/>
   </g>
  </g>
 </g>
</svg>
