<?xml version="1.0" encoding="UTF-8"?>
<!DOCTYPE svg PUBLIC "-//W3C//DTD SVG 1.1//EN" "http://www.w3.org/Graphics/SVG/1.1/DTD/svg11.dtd">
<!-- Creator: CorelDRAW -->
<svg xmlns="http://www.w3.org/2000/svg" xml:space="preserve" width="68.0929mm" height="32.1134mm" version="1.1" style="shape-rendering:geometricPrecision; text-rendering:geometricPrecision; image-rendering:optimizeQuality; fill-rule:evenodd; clip-rule:evenodd"
viewBox="0 0 840.98 396.62"
 xmlns:xlink="http://www.w3.org/1999/xlink"
 xmlns:xodm="http://www.corel.com/coreldraw/odm/2003">
 <defs>
  <style type="text/css">
   <![CDATA[
    .fil7 {fill:#165F9F}
    .fil5 {fill:#167B6B}
    .fil10 {fill:#3B9DF1}
    .fil9 {fill:#44B8A4}
    .fil6 {fill:#56167B}
    .fil8 {fill:#9E30DE}
    .fil0 {fill:white;fill-rule:nonzero}
    .fil11 {fill:#91D9F8;fill-rule:nonzero}
    .fil3 {fill:#44B8A4;fill-rule:nonzero}
    .fil4 {fill:#5248BE;fill-rule:nonzero}
    .fil2 {fill:#7B68EA;fill-rule:nonzero}
    .fil1 {fill:url(#id0);fill-rule:nonzero}
   ]]>
  </style>
  <linearGradient id="id0" gradientUnits="userSpaceOnUse" x1="58.41" y1="-474.8" x2="58.41" y2="207.94">
   <stop offset="0" style="stop-opacity:1; stop-color:#7D57A2"/>
   <stop offset="0.988235" style="stop-opacity:1; stop-color:#00BDF2"/>
   <stop offset="1" style="stop-opacity:1; stop-color:#00BDF2"/>
  </linearGradient>
 </defs>
 <g id="Layer_x0020_1">
  <metadata id="CorelCorpID_0Corel-Layer"/>
  <g id="_105553203711648">
   <path class="fil0" d="M35.74 317.94c7.28,0 12.61,-1.29 16.01,-3.72 3.4,-2.43 5.01,-5.99 5.01,-10.51 0,-2.75 -0.49,-5.01 -1.62,-6.95 -1.13,-1.94 -2.75,-3.72 -4.85,-5.34 -2.1,-1.45 -4.69,-2.91 -7.76,-4.37 -3.07,-1.29 -6.47,-2.59 -10.35,-3.88 -3.88,-1.46 -7.6,-2.91 -11.16,-4.69 -3.72,-1.62 -6.79,-3.72 -9.54,-6.15 -2.75,-2.43 -5.01,-5.5 -6.63,-8.89 -1.78,-3.4 -2.59,-7.6 -2.59,-12.45 0,-10.19 3.56,-18.11 10.51,-23.94 6.95,-5.66 16.5,-8.57 28.63,-8.57 6.95,0 13.26,0.81 18.76,2.26 5.34,1.62 9.7,3.4 12.78,5.17l-6.31 16.5c-3.72,-2.1 -7.6,-3.56 -11.97,-4.69 -4.37,-1.13 -8.89,-1.62 -13.58,-1.62 -5.5,0 -9.7,1.13 -12.78,3.4 -3.07,2.26 -4.69,5.5 -4.69,9.54 0,2.43 0.49,4.53 1.62,6.31 0.97,1.78 2.43,3.4 4.37,4.85 1.78,1.46 4.04,2.75 6.63,3.88 2.43,1.13 5.18,2.26 8.25,3.4 5.34,1.94 10.03,3.88 14.23,5.82 4.04,2.1 7.6,4.37 10.51,7.12 2.75,2.75 5.01,5.98 6.47,9.7 1.46,3.72 2.27,8.25 2.27,13.59 0,10.19 -3.56,17.95 -10.67,23.45 -7.28,5.66 -17.79,8.41 -31.54,8.41 -4.69,0 -8.89,-0.32 -12.61,-0.81 -3.88,-0.65 -7.28,-1.45 -10.19,-2.27 -3.07,-0.81 -5.66,-1.78 -7.76,-2.75 -2.1,-0.81 -3.88,-1.62 -5.17,-2.43l5.98 -16.66c2.91,1.62 6.79,3.23 11.81,4.85 5.01,1.62 11,2.43 17.95,2.43z"/>
   <path id="_1" class="fil0" d="M171.43 290.77c0,6.63 -0.97,12.78 -2.91,18.27 -1.94,5.5 -4.69,10.19 -8.25,14.07 -3.56,3.88 -7.76,6.95 -12.78,9.06 -5.01,2.1 -10.67,3.23 -16.66,3.23 -5.98,0 -11.48,-1.13 -16.5,-3.23 -5.01,-2.1 -9.22,-5.18 -12.78,-9.06 -3.56,-3.88 -6.31,-8.57 -8.25,-14.07 -2.1,-5.5 -3.07,-11.64 -3.07,-18.27 0,-6.63 0.97,-12.78 3.07,-18.27 1.94,-5.34 4.69,-10.03 8.41,-13.91 3.56,-3.88 7.76,-6.95 12.78,-9.06 5.01,-2.1 10.35,-3.07 16.33,-3.07 5.98,0 11.48,0.97 16.5,3.07 5.01,2.1 9.22,5.17 12.78,9.06 3.56,3.88 6.31,8.57 8.41,13.91 1.94,5.5 2.91,11.64 2.91,18.27zm-20.05 0c0,-8.41 -1.78,-15.04 -5.34,-20.05 -3.72,-4.85 -8.73,-7.28 -15.2,-7.28 -6.47,0 -11.48,2.43 -15.04,7.28 -3.72,5.01 -5.5,11.64 -5.5,20.05 0,8.57 1.78,15.2 5.5,20.22 3.56,5.01 8.57,7.44 15.04,7.44 6.47,0 11.48,-2.43 15.2,-7.44 3.56,-5.01 5.34,-11.65 5.34,-20.22z"/>
   <path id="_2" class="fil0" d="M221.08 334.76c-5.82,-0.16 -10.67,-0.81 -14.39,-1.94 -3.88,-1.13 -6.95,-2.91 -9.22,-5.18 -2.26,-2.1 -3.88,-4.85 -4.69,-8.25 -0.97,-3.23 -1.46,-6.95 -1.46,-11.16l0 -97.36 19.57 -3.23 0 96.87c0,2.43 0.16,4.37 0.65,5.98 0.32,1.62 0.97,2.91 1.94,4.04 0.97,1.13 2.26,2.1 4.04,2.59 1.62,0.65 3.72,1.13 6.31,1.45l-2.75 16.17z"/>
   <path id="_3" class="fil0" d="M309.06 330.56c-3.72,0.97 -8.73,1.94 -14.72,3.07 -5.98,0.97 -12.61,1.46 -19.89,1.46 -6.79,0 -12.45,-0.97 -16.98,-2.91 -4.69,-1.94 -8.25,-4.69 -11,-8.09 -2.75,-3.4 -4.85,-7.6 -5.98,-12.45 -1.13,-4.69 -1.78,-10.03 -1.78,-15.69l0 -47.39 19.57 0 0 44.31c0,9.06 1.29,15.52 4.04,19.41 2.59,3.88 7.12,5.82 13.75,5.82 2.43,0 4.85,-0.16 7.6,-0.32 2.59,-0.16 4.53,-0.49 5.82,-0.81l0 -68.41 19.57 0 0 81.99z"/>
   <path id="_4" class="fil0" d="M362.11 317.94c7.28,0 12.61,-1.29 16.01,-3.72 3.4,-2.43 5.01,-5.99 5.01,-10.51 0,-2.75 -0.49,-5.01 -1.62,-6.95 -1.13,-1.94 -2.75,-3.72 -4.85,-5.34 -2.1,-1.45 -4.69,-2.91 -7.76,-4.37 -3.07,-1.29 -6.47,-2.59 -10.35,-3.88 -3.88,-1.46 -7.6,-2.91 -11.16,-4.69 -3.72,-1.62 -6.79,-3.72 -9.54,-6.15 -2.75,-2.43 -5.01,-5.5 -6.63,-8.89 -1.78,-3.4 -2.59,-7.6 -2.59,-12.45 0,-10.19 3.56,-18.11 10.51,-23.94 6.95,-5.66 16.5,-8.57 28.63,-8.57 6.95,0 13.26,0.81 18.76,2.26 5.34,1.62 9.7,3.4 12.78,5.17l-6.31 16.5c-3.72,-2.1 -7.6,-3.56 -11.97,-4.69 -4.37,-1.13 -8.89,-1.62 -13.59,-1.62 -5.5,0 -9.7,1.13 -12.78,3.4 -3.07,2.26 -4.69,5.5 -4.69,9.54 0,2.43 0.49,4.53 1.62,6.31 0.97,1.78 2.43,3.4 4.37,4.85 1.78,1.46 4.04,2.75 6.63,3.88 2.43,1.13 5.18,2.26 8.25,3.4 5.34,1.94 10.03,3.88 14.23,5.82 4.04,2.1 7.6,4.37 10.51,7.12 2.75,2.75 5.01,5.98 6.47,9.7 1.45,3.72 2.26,8.25 2.26,13.59 0,10.19 -3.56,17.95 -10.67,23.45 -7.28,5.66 -17.79,8.41 -31.54,8.41 -4.69,0 -8.89,-0.32 -12.61,-0.81 -3.88,-0.65 -7.28,-1.45 -10.19,-2.27 -3.07,-0.81 -5.66,-1.78 -7.76,-2.75 -2.1,-0.81 -3.88,-1.62 -5.18,-2.43l5.98 -16.66c2.91,1.62 6.79,3.23 11.81,4.85 5.01,1.62 11,2.43 17.95,2.43z"/>
   <path id="_5" class="fil0" d="M477.42 291.26c0,-8.73 -1.94,-15.53 -5.82,-20.38 -4.04,-4.85 -10.35,-7.28 -19.08,-7.28 -1.78,0 -3.72,0 -5.66,0.16 -2.1,0.16 -4.04,0.65 -5.99,1.13l0 48.36c1.78,1.13 4.04,2.27 6.95,3.24 2.75,1.13 5.82,1.62 9.06,1.62 7.12,0 12.29,-2.43 15.69,-7.28 3.23,-4.85 4.85,-11.32 4.85,-19.57zm20.05 -0.32c0,6.47 -0.81,12.45 -2.43,17.79 -1.78,5.34 -4.21,10.03 -7.28,13.91 -3.07,3.88 -6.95,6.95 -11.64,9.06 -4.69,2.1 -10.03,3.23 -16.01,3.23 -4.04,0 -7.6,-0.48 -11,-1.45 -3.4,-0.97 -6.15,-2.1 -8.25,-3.23l0 32.83 -19.57 0 0 -111.75c4.04,-1.13 8.89,-2.1 14.72,-3.07 5.82,-0.97 11.97,-1.46 18.44,-1.46 6.63,0 12.61,0.97 17.95,3.07 5.34,2.1 9.87,5.01 13.59,8.73 3.72,3.88 6.47,8.57 8.57,13.91 1.94,5.5 2.91,11.64 2.91,18.44z"/>
   <path id="_6" class="fil0" d="M517.69 333.14l0 -122.26 19.57 -3.23 0 41.89c2.1,-0.81 4.69,-1.46 7.6,-1.94 2.75,-0.48 5.66,-0.81 8.41,-0.81 6.79,0 12.45,0.97 16.98,2.75 4.37,1.94 7.92,4.53 10.67,7.92 2.75,3.4 4.69,7.6 5.82,12.29 1.13,4.69 1.62,10.03 1.62,15.85l0 47.55 -19.57 0 0 -44.47c0,-4.53 -0.32,-8.41 -0.81,-11.65 -0.65,-3.07 -1.62,-5.66 -2.91,-7.76 -1.45,-1.94 -3.23,-3.4 -5.5,-4.37 -2.26,-0.81 -5.01,-1.29 -8.41,-1.29 -2.59,0 -5.17,0.32 -7.92,0.81 -2.75,0.49 -4.69,0.97 -5.99,1.46l0 67.28 -19.57 0z"/>
   <path id="_7" class="fil0" d="M607.12 291.26c0,-7.44 1.13,-13.91 3.4,-19.57 2.1,-5.66 5.01,-10.35 8.73,-14.07 3.72,-3.72 7.92,-6.47 12.61,-8.41 4.69,-1.78 9.54,-2.75 14.56,-2.75 11.64,0 20.7,3.56 27.33,10.84 6.47,7.28 9.7,17.95 9.7,32.34 0,1.13 0,2.27 0,3.56 -0.16,1.45 -0.16,2.59 -0.32,3.72l-55.8 0c0.49,6.79 2.91,11.97 7.28,15.69 4.21,3.72 10.35,5.66 18.44,5.66 4.69,0 9.06,-0.49 13.1,-1.29 3.88,-0.81 6.96,-1.78 9.22,-2.75l2.59 16.01c-1.13,0.49 -2.59,1.13 -4.37,1.62 -1.94,0.65 -4.04,1.13 -6.47,1.78 -2.43,0.49 -5.18,0.81 -7.93,1.13 -2.75,0.32 -5.66,0.49 -8.57,0.49 -7.44,0 -13.91,-1.13 -19.41,-3.4 -5.5,-2.1 -10.03,-5.18 -13.59,-9.22 -3.56,-3.88 -6.15,-8.57 -7.92,-13.91 -1.78,-5.34 -2.59,-11.16 -2.59,-17.47zm56.77 -8.73c0,-2.75 -0.32,-5.34 -1.13,-7.76 -0.81,-2.43 -1.78,-4.53 -3.23,-6.31 -1.46,-1.78 -3.23,-3.07 -5.34,-4.2 -2.1,-0.97 -4.69,-1.46 -7.6,-1.46 -3.07,0 -5.66,0.49 -7.93,1.62 -2.26,1.13 -4.2,2.75 -5.66,4.53 -1.62,1.78 -2.91,3.88 -3.72,6.31 -0.81,2.43 -1.46,4.85 -1.78,7.28l36.39 0z"/>
   <path id="_8" class="fil0" d="M752.35 266.19c-1.62,-0.49 -3.88,-1.13 -6.63,-1.78 -2.91,-0.48 -6.31,-0.81 -10.03,-0.81 -2.1,0 -4.37,0.16 -6.79,0.65 -2.43,0.49 -4.2,0.81 -5.17,1.13l0 67.76 -19.57 0 0 -80.54c3.72,-1.46 8.57,-2.75 14.23,-4.04 5.66,-1.13 11.81,-1.78 18.76,-1.78 1.29,0 2.75,0 4.53,0.16 1.78,0.16 3.4,0.49 5.18,0.65 1.78,0.32 3.4,0.65 5.01,0.97 1.62,0.49 2.91,0.81 3.88,1.13l-3.4 16.5z"/>
   <path id="_9" class="fil0" d="M764.64 291.26c0,-7.44 1.13,-13.91 3.4,-19.57 2.1,-5.66 5.01,-10.35 8.73,-14.07 3.72,-3.72 7.92,-6.47 12.61,-8.41 4.69,-1.78 9.54,-2.75 14.56,-2.75 11.64,0 20.7,3.56 27.33,10.84 6.47,7.28 9.7,17.95 9.7,32.34 0,1.13 0,2.27 0,3.56 -0.16,1.45 -0.16,2.59 -0.32,3.72l-55.8 0c0.49,6.79 2.91,11.97 7.28,15.69 4.21,3.72 10.35,5.66 18.44,5.66 4.69,0 9.06,-0.49 13.1,-1.29 3.88,-0.81 6.96,-1.78 9.22,-2.75l2.59 16.01c-1.13,0.49 -2.59,1.13 -4.37,1.62 -1.94,0.65 -4.04,1.13 -6.47,1.78 -2.43,0.49 -5.18,0.81 -7.93,1.13 -2.75,0.32 -5.66,0.49 -8.57,0.49 -7.44,0 -13.91,-1.13 -19.41,-3.4 -5.5,-2.1 -10.03,-5.18 -13.59,-9.22 -3.56,-3.88 -6.15,-8.57 -7.92,-13.91 -1.78,-5.34 -2.59,-11.16 -2.59,-17.47zm56.77 -8.73c0,-2.75 -0.32,-5.34 -1.13,-7.76 -0.81,-2.43 -1.78,-4.53 -3.23,-6.31 -1.46,-1.78 -3.23,-3.07 -5.34,-4.2 -2.1,-0.97 -4.69,-1.46 -7.6,-1.46 -3.07,0 -5.66,0.49 -7.93,1.62 -2.26,1.13 -4.2,2.75 -5.66,4.53 -1.62,1.78 -2.91,3.88 -3.72,6.31 -0.81,2.43 -1.46,4.85 -1.78,7.28l36.39 0z"/>
  </g>
  <path class="fil1" d="M111.91 0c-29.86,0.53 -56.85,12.84 -76.5,32.5 -13.57,13.57 -23.65,30.65 -28.75,49.75 -2.3,8.62 -3.59,17.65 -3.74,26.96l36.47 0c0.14,-6.04 1.01,-11.91 2.51,-17.53 1.68,-6.3 4.17,-12.27 7.35,-17.8 -0.65,-0.5 -1.28,-1.05 -1.87,-1.65 -7.7,-7.7 -7.7,-20.17 0,-27.87 7.7,-7.69 20.17,-7.69 27.86,0 0.61,0.61 1.16,1.24 1.67,1.9 10.36,-5.94 22.29,-9.46 35,-9.8l0 -36.47z"/>
  <path class="fil2" d="M115.49 221.98l109.42 0 -32.52 -32.51c13.57,-13.57 23.64,-30.65 28.77,-49.75 2.3,-8.59 3.59,-17.6 3.74,-26.89l-36.47 0c-0.15,6.02 -1.01,11.86 -2.51,17.45 -1.67,6.25 -4.13,12.18 -7.27,17.66 0.66,0.51 1.29,1.06 1.89,1.67 7.7,7.7 7.7,20.17 0,27.87 -7.69,7.7 -20.16,7.7 -27.86,0 -0.59,-0.59 -1.14,-1.21 -1.64,-1.86 -10.5,6.05 -22.62,9.61 -35.55,9.88l0 36.48z"/>
  <path class="fil3" d="M206.57 109.25c-0.27,-15.18 -4.29,-30.51 -12.41,-44.59 -0.75,-1.29 -1.52,-2.56 -2.32,-3.8 -7.74,6.3 -19.14,5.85 -26.35,-1.36 -7.22,-7.22 -7.67,-18.65 -1.34,-26.39 -8.13,-5.24 -17.01,-9.15 -26.27,-11.62 -7.29,-1.95 -14.8,-3.02 -22.39,-3.15l0 36.48c4.39,0.12 8.74,0.77 12.96,1.9 13.88,3.72 26.35,12.75 34.11,26.19 4.81,8.33 7.25,17.37 7.51,26.36l36.49 0z"/>
  <path class="fil4" d="M21.25 112.79c0.28,15.16 4.3,30.46 12.41,44.53 0.76,1.32 1.55,2.61 2.37,3.88 7.73,-6.04 18.93,-5.5 26.04,1.61 7.12,7.12 7.65,18.33 1.6,26.06 8.13,5.23 17,9.14 26.25,11.62 7.16,1.91 14.55,2.98 21.99,3.15l0 -36.48c-4.25,-0.16 -8.46,-0.79 -12.55,-1.89 -13.89,-3.72 -26.35,-12.74 -34.11,-26.18 -4.8,-8.3 -7.23,-17.33 -7.51,-26.29l-36.49 0z"/>
  <path class="fil5" d="M192.23 32.65c7.08,7.08 7.08,18.55 0,25.63 -7.08,7.08 -18.54,7.08 -25.62,0 -7.08,-7.08 -7.08,-18.55 0,-25.63 7.08,-7.07 18.55,-7.07 25.62,0z"/>
  <path class="fil6" d="M35.57 189.32c-7.08,-7.08 -7.08,-18.56 0,-25.63 7.08,-7.07 18.56,-7.07 25.63,0 7.08,7.08 7.08,18.56 0,25.63 -7.08,7.08 -18.56,7.08 -25.63,0z"/>
  <path class="fil7" d="M48.39 45.47c7.12,-7.13 18.67,-7.13 25.78,0 7.13,7.12 7.13,18.66 0,25.79 -7.11,7.12 -18.66,7.12 -25.78,0 -7.13,-7.13 -7.13,-18.67 0,-25.79z"/>
  <path class="fil7" d="M179.43 176.5c-7.13,7.12 -18.67,7.12 -25.8,0 -7.11,-7.13 -7.11,-18.67 0,-25.79 7.13,-7.12 18.67,-7.12 25.8,0 7.11,7.12 7.11,18.66 0,25.79z"/>
  <path class="fil8" d="M63.77 199.63c12.29,6.98 26.19,11.46 40.99,12.78l0 9.21c-18.97,-1.55 -36.6,-7.87 -51.65,-17.75 3.74,-0.64 7.37,-2.05 10.65,-4.24zm-51.29 -79.5c1.32,14.8 5.81,28.7 12.79,40.99 -2.19,3.29 -3.59,6.92 -4.24,10.66 -9.88,-15.07 -16.21,-32.69 -17.75,-51.65l9.2 0z"/>
  <path class="fil9" d="M164.04 22.35c-12.3,-6.98 -26.19,-11.47 -40.99,-12.79l0 -9.21c18.97,1.55 36.59,7.87 51.66,17.75 -3.73,0.64 -7.39,2.05 -10.66,4.24zm51.3 79.49c-1.32,-14.81 -5.82,-28.7 -12.79,-41 2.17,-3.28 3.59,-6.92 4.23,-10.66 9.88,15.07 16.21,32.69 17.76,51.66l-9.2 0z"/>
  <path class="fil10" d="M113.91 118.17c-3.96,0 -7.18,-3.21 -7.18,-7.19 0,-3.96 3.21,-7.17 7.18,-7.17 3.96,0 7.17,3.21 7.17,7.17 0,3.97 -3.21,7.19 -7.17,7.19zm-22.39 0c-3.96,0 -7.17,-3.21 -7.17,-7.19 0,-3.96 3.21,-7.17 7.17,-7.17 3.96,0 7.17,3.21 7.17,7.17 0,3.97 -3.21,7.19 -7.17,7.19zm44.76 0c-3.96,0 -7.17,-3.21 -7.17,-7.19 0,-3.96 3.21,-7.17 7.17,-7.17 3.96,0 7.17,3.21 7.17,7.17 0,3.97 -3.21,7.19 -7.17,7.19z"/>
  <path class="fil11" d="M64.57 376.01c-0.03,-0.27 -0.06,-0.5 -0.06,-0.77 0,-0.27 0,-0.47 0,-0.62 0.03,-1.19 0.27,-2.32 0.71,-3.41 0.42,-1.1 0.92,-2.08 1.54,-2.94l2.64 0.71c-0.39,0.86 -0.71,1.78 -0.92,2.76 -0.21,0.98 -0.33,1.9 -0.33,2.76 0,0.15 0,0.39 0,0.68 0,0.3 0.03,0.56 0.06,0.83l-3.65 0zm5.97 0c-0.03,-0.27 -0.06,-0.5 -0.06,-0.77 0,-0.27 0,-0.47 0,-0.62 0.03,-1.19 0.27,-2.32 0.71,-3.41 0.42,-1.1 0.92,-2.08 1.54,-2.94l2.64 0.71c-0.39,0.86 -0.71,1.78 -0.92,2.76 -0.21,0.98 -0.33,1.9 -0.33,2.76 0,0.15 0,0.39 0,0.68 0,0.3 0.03,0.56 0.06,0.83l-3.65 0z"/>
  <path id="_1_0" class="fil11" d="M84.94 391.3c-1.1,0 -2.2,-0.03 -3.3,-0.09 -1.1,-0.09 -2.08,-0.24 -2.91,-0.44l0 -19.98c0.45,-0.09 0.89,-0.15 1.4,-0.24 0.5,-0.06 1.01,-0.12 1.51,-0.15 0.5,-0.03 1.04,-0.06 1.54,-0.09 0.5,-0.03 0.98,-0.03 1.42,-0.03 1.25,0 2.4,0.09 3.47,0.27 1.07,0.21 1.99,0.51 2.79,0.95 0.77,0.44 1.37,1.01 1.81,1.72 0.45,0.71 0.65,1.6 0.65,2.64 0,0.98 -0.24,1.81 -0.68,2.49 -0.47,0.68 -1.13,1.25 -1.96,1.66 1.25,0.42 2.17,1.04 2.76,1.84 0.59,0.8 0.89,1.84 0.89,3.09 0,2.11 -0.77,3.71 -2.32,4.75 -1.54,1.07 -3.92,1.6 -7.1,1.6zm-2.52 -9.5l0 6.26c0.41,0.03 0.86,0.06 1.34,0.09 0.48,0.03 0.92,0.03 1.31,0.03 0.77,0 1.48,-0.06 2.17,-0.15 0.65,-0.09 1.22,-0.27 1.72,-0.53 0.47,-0.24 0.86,-0.56 1.16,-0.98 0.27,-0.41 0.42,-0.95 0.42,-1.6 0,-1.16 -0.42,-1.99 -1.28,-2.43 -0.86,-0.44 -2.02,-0.68 -3.53,-0.68l-3.3 0zm0 -2.94l2.64 0c1.43,0 2.55,-0.21 3.35,-0.62 0.8,-0.39 1.22,-1.13 1.22,-2.17 0,-0.98 -0.42,-1.69 -1.25,-2.11 -0.86,-0.42 -1.96,-0.62 -3.3,-0.62 -0.56,0 -1.07,0 -1.51,0.03 -0.44,0.03 -0.83,0.06 -1.16,0.09l0 5.4z"/>
  <path id="_2_1" class="fil11" d="M97.2 383.37c0,-1.36 0.21,-2.55 0.62,-3.59 0.39,-1.04 0.92,-1.9 1.6,-2.58 0.68,-0.68 1.45,-1.19 2.31,-1.54 0.86,-0.33 1.75,-0.51 2.67,-0.51 2.14,0 3.8,0.65 5.02,1.99 1.19,1.34 1.78,3.3 1.78,5.94 0,0.21 0,0.42 0,0.65 -0.03,0.27 -0.03,0.47 -0.06,0.68l-10.24 0c0.09,1.25 0.53,2.2 1.34,2.88 0.77,0.68 1.9,1.04 3.38,1.04 0.86,0 1.66,-0.09 2.4,-0.24 0.71,-0.15 1.28,-0.33 1.69,-0.5l0.48 2.94c-0.21,0.09 -0.48,0.21 -0.8,0.3 -0.36,0.12 -0.74,0.21 -1.19,0.33 -0.45,0.09 -0.95,0.15 -1.45,0.21 -0.51,0.06 -1.04,0.09 -1.57,0.09 -1.37,0 -2.55,-0.21 -3.56,-0.62 -1.01,-0.39 -1.84,-0.95 -2.49,-1.69 -0.65,-0.71 -1.13,-1.57 -1.45,-2.55 -0.33,-0.98 -0.47,-2.05 -0.47,-3.21zm10.42 -1.6c0,-0.5 -0.06,-0.98 -0.21,-1.42 -0.15,-0.45 -0.33,-0.83 -0.59,-1.16 -0.27,-0.33 -0.59,-0.56 -0.98,-0.77 -0.39,-0.18 -0.86,-0.27 -1.4,-0.27 -0.56,0 -1.04,0.09 -1.45,0.3 -0.42,0.21 -0.77,0.51 -1.04,0.83 -0.3,0.33 -0.53,0.71 -0.68,1.16 -0.15,0.44 -0.27,0.89 -0.33,1.34l6.68 0z"/>
  <path id="_3_2" class="fil11" d="M114.15 383.32c0,-1.16 0.18,-2.23 0.53,-3.24 0.36,-0.98 0.86,-1.84 1.54,-2.58 0.65,-0.74 1.45,-1.31 2.4,-1.72 0.95,-0.42 2.02,-0.62 3.21,-0.62 1.45,0 2.85,0.27 4.16,0.8l-0.77 2.94c-0.42,-0.18 -0.89,-0.33 -1.4,-0.45 -0.53,-0.12 -1.1,-0.18 -1.69,-0.18 -1.4,0 -2.46,0.45 -3.21,1.31 -0.74,0.89 -1.1,2.14 -1.1,3.74 0,1.54 0.36,2.76 1.04,3.65 0.68,0.92 1.87,1.37 3.5,1.37 0.62,0 1.22,-0.06 1.81,-0.18 0.59,-0.12 1.1,-0.27 1.54,-0.44l0.51 2.97c-0.39,0.21 -0.98,0.39 -1.78,0.53 -0.8,0.15 -1.63,0.24 -2.49,0.24 -1.34,0 -2.47,-0.21 -3.44,-0.62 -0.98,-0.39 -1.81,-0.95 -2.43,-1.69 -0.65,-0.71 -1.13,-1.57 -1.45,-2.58 -0.33,-0.98 -0.47,-2.08 -0.47,-3.24z"/>
  <path id="_4_3" class="fil11" d="M134.49 388.54c1.1,0 1.96,-0.06 2.52,-0.18l0 -3.98c-0.21,-0.06 -0.48,-0.12 -0.86,-0.18 -0.39,-0.06 -0.8,-0.09 -1.25,-0.09 -0.39,0 -0.8,0.03 -1.19,0.09 -0.42,0.06 -0.77,0.18 -1.1,0.33 -0.33,0.15 -0.59,0.39 -0.8,0.65 -0.21,0.3 -0.3,0.65 -0.3,1.1 0,0.86 0.27,1.43 0.8,1.75 0.53,0.33 1.25,0.51 2.17,0.51zm-0.3 -13.39c1.19,0 2.2,0.15 3,0.45 0.8,0.3 1.45,0.71 1.96,1.25 0.48,0.53 0.83,1.19 1.04,1.93 0.21,0.77 0.3,1.6 0.3,2.52l0 9.41c-0.56,0.12 -1.4,0.27 -2.49,0.44 -1.13,0.15 -2.4,0.24 -3.8,0.24 -0.92,0 -1.78,-0.09 -2.55,-0.27 -0.77,-0.18 -1.43,-0.48 -1.96,-0.86 -0.56,-0.39 -0.98,-0.92 -1.28,-1.54 -0.33,-0.62 -0.48,-1.43 -0.48,-2.35 0,-0.89 0.18,-1.63 0.53,-2.26 0.33,-0.62 0.8,-1.13 1.4,-1.51 0.59,-0.39 1.28,-0.65 2.08,-0.83 0.77,-0.15 1.57,-0.24 2.44,-0.24 0.39,0 0.8,0.03 1.25,0.06 0.45,0.06 0.89,0.15 1.4,0.27l0 -0.59c0,-0.42 -0.06,-0.8 -0.15,-1.19 -0.09,-0.39 -0.27,-0.71 -0.51,-1.01 -0.27,-0.27 -0.59,-0.51 -0.98,-0.65 -0.42,-0.15 -0.92,-0.24 -1.54,-0.24 -0.83,0 -1.6,0.06 -2.29,0.18 -0.68,0.12 -1.25,0.27 -1.69,0.42l-0.45 -2.91c0.45,-0.15 1.13,-0.33 1.99,-0.48 0.86,-0.15 1.81,-0.24 2.79,-0.24z"/>
  <path id="_5_4" class="fil11" d="M157.61 390.59c-0.68,0.18 -1.6,0.36 -2.7,0.56 -1.1,0.18 -2.32,0.27 -3.65,0.27 -1.25,0 -2.29,-0.18 -3.12,-0.53 -0.86,-0.36 -1.51,-0.86 -2.02,-1.48 -0.5,-0.62 -0.89,-1.4 -1.1,-2.29 -0.21,-0.86 -0.33,-1.84 -0.33,-2.88l0 -8.7 3.59 0 0 8.13c0,1.66 0.24,2.85 0.74,3.56 0.48,0.71 1.31,1.07 2.52,1.07 0.45,0 0.89,-0.03 1.4,-0.06 0.48,-0.03 0.83,-0.09 1.07,-0.15l0 -12.56 3.59 0 0 15.05z"/>
  <path id="_6_5" class="fil11" d="M166.07 388.48c0.95,0 1.63,-0.12 2.08,-0.36 0.45,-0.21 0.65,-0.59 0.65,-1.16 0,-0.51 -0.24,-0.95 -0.68,-1.28 -0.47,-0.33 -1.25,-0.71 -2.32,-1.1 -0.65,-0.24 -1.25,-0.51 -1.78,-0.77 -0.56,-0.27 -1.04,-0.56 -1.43,-0.92 -0.39,-0.36 -0.71,-0.8 -0.92,-1.31 -0.24,-0.5 -0.36,-1.1 -0.36,-1.84 0,-1.43 0.53,-2.55 1.57,-3.38 1.04,-0.8 2.46,-1.22 4.27,-1.22 0.92,0 1.78,0.09 2.61,0.24 0.83,0.18 1.45,0.36 1.87,0.51l-0.65 2.91c-0.39,-0.18 -0.89,-0.36 -1.51,-0.51 -0.62,-0.15 -1.34,-0.21 -2.14,-0.21 -0.74,0 -1.34,0.12 -1.78,0.36 -0.44,0.27 -0.68,0.65 -0.68,1.16 0,0.27 0.06,0.47 0.15,0.68 0.09,0.21 0.24,0.39 0.45,0.53 0.21,0.18 0.51,0.36 0.86,0.51 0.36,0.18 0.8,0.36 1.31,0.53 0.86,0.33 1.57,0.62 2.17,0.92 0.59,0.33 1.1,0.65 1.48,1.04 0.39,0.39 0.65,0.83 0.83,1.34 0.18,0.5 0.27,1.1 0.27,1.78 0,1.48 -0.53,2.61 -1.63,3.35 -1.1,0.77 -2.67,1.16 -4.72,1.16 -1.37,0 -2.46,-0.12 -3.3,-0.33 -0.83,-0.24 -1.43,-0.41 -1.75,-0.56l0.62 -3c0.53,0.21 1.19,0.41 1.93,0.62 0.74,0.21 1.57,0.3 2.52,0.3z"/>
  <path id="_7_6" class="fil11" d="M174.89 383.37c0,-1.36 0.21,-2.55 0.62,-3.59 0.39,-1.04 0.92,-1.9 1.6,-2.58 0.68,-0.68 1.45,-1.19 2.31,-1.54 0.86,-0.33 1.75,-0.51 2.67,-0.51 2.14,0 3.8,0.65 5.02,1.99 1.19,1.34 1.78,3.3 1.78,5.94 0,0.21 0,0.42 0,0.65 -0.03,0.27 -0.03,0.47 -0.06,0.68l-10.24 0c0.09,1.25 0.53,2.2 1.34,2.88 0.77,0.68 1.9,1.04 3.38,1.04 0.86,0 1.66,-0.09 2.4,-0.24 0.71,-0.15 1.28,-0.33 1.69,-0.5l0.48 2.94c-0.21,0.09 -0.48,0.21 -0.8,0.3 -0.36,0.12 -0.74,0.21 -1.19,0.33 -0.45,0.09 -0.95,0.15 -1.45,0.21 -0.51,0.06 -1.04,0.09 -1.57,0.09 -1.37,0 -2.55,-0.21 -3.56,-0.62 -1.01,-0.39 -1.84,-0.95 -2.49,-1.69 -0.65,-0.71 -1.13,-1.57 -1.45,-2.55 -0.33,-0.98 -0.47,-2.05 -0.47,-3.21zm10.42 -1.6c0,-0.5 -0.06,-0.98 -0.21,-1.42 -0.15,-0.45 -0.33,-0.83 -0.59,-1.16 -0.27,-0.33 -0.59,-0.56 -0.98,-0.77 -0.39,-0.18 -0.86,-0.27 -1.4,-0.27 -0.56,0 -1.04,0.09 -1.45,0.3 -0.42,0.21 -0.77,0.51 -1.04,0.83 -0.3,0.33 -0.53,0.71 -0.68,1.16 -0.15,0.44 -0.27,0.89 -0.33,1.34l6.68 0z"/>
  <path id="_8_7" class="fil11" d="M212.3 375.54c-1.6,5.91 -3.47,11.25 -5.58,16.03 -0.39,0.89 -0.8,1.66 -1.22,2.28 -0.41,0.62 -0.89,1.16 -1.4,1.57 -0.5,0.42 -1.1,0.71 -1.72,0.92 -0.62,0.18 -1.36,0.27 -2.2,0.27 -0.56,0 -1.1,-0.06 -1.63,-0.18 -0.56,-0.12 -0.98,-0.24 -1.25,-0.39l0.65 -2.88c0.71,0.27 1.43,0.41 2.11,0.41 0.92,0 1.66,-0.21 2.2,-0.65 0.51,-0.44 0.98,-1.16 1.37,-2.08 -1.13,-2.17 -2.2,-4.54 -3.24,-7.12 -1.04,-2.58 -1.99,-5.31 -2.79,-8.19l3.83 0c0.21,0.83 0.45,1.72 0.74,2.7 0.27,0.98 0.59,1.96 0.92,2.94 0.33,1.01 0.68,2.02 1.07,3 0.39,0.98 0.74,1.9 1.13,2.76 0.62,-1.75 1.22,-3.65 1.78,-5.64 0.56,-1.99 1.07,-3.89 1.51,-5.76l3.71 0z"/>
  <path id="_9_8" class="fil11" d="M229.07 383.29c0,1.22 -0.18,2.35 -0.53,3.35 -0.36,1.01 -0.86,1.87 -1.51,2.58 -0.65,0.71 -1.43,1.28 -2.35,1.66 -0.92,0.39 -1.96,0.59 -3.06,0.59 -1.1,0 -2.11,-0.21 -3.03,-0.59 -0.92,-0.39 -1.69,-0.95 -2.35,-1.66 -0.65,-0.71 -1.16,-1.57 -1.51,-2.58 -0.39,-1.01 -0.56,-2.14 -0.56,-3.35 0,-1.22 0.18,-2.35 0.56,-3.35 0.36,-0.98 0.86,-1.84 1.54,-2.55 0.65,-0.71 1.43,-1.28 2.35,-1.66 0.92,-0.39 1.9,-0.56 3,-0.56 1.1,0 2.11,0.18 3.03,0.56 0.92,0.39 1.69,0.95 2.35,1.66 0.65,0.71 1.16,1.57 1.54,2.55 0.36,1.01 0.53,2.14 0.53,3.35zm-3.68 0c0,-1.54 -0.33,-2.76 -0.98,-3.68 -0.68,-0.89 -1.6,-1.34 -2.79,-1.34 -1.19,0 -2.11,0.45 -2.76,1.34 -0.68,0.92 -1.01,2.14 -1.01,3.68 0,1.57 0.33,2.79 1.01,3.71 0.65,0.92 1.57,1.37 2.76,1.37 1.19,0 2.11,-0.45 2.79,-1.37 0.65,-0.92 0.98,-2.14 0.98,-3.71z"/>
  <path id="_10" class="fil11" d="M245.52 390.59c-0.68,0.18 -1.6,0.36 -2.7,0.56 -1.1,0.18 -2.32,0.27 -3.65,0.27 -1.25,0 -2.29,-0.18 -3.12,-0.53 -0.86,-0.36 -1.51,-0.86 -2.02,-1.48 -0.5,-0.62 -0.89,-1.4 -1.1,-2.29 -0.21,-0.86 -0.33,-1.84 -0.33,-2.88l0 -8.7 3.59 0 0 8.13c0,1.66 0.24,2.85 0.74,3.56 0.48,0.71 1.31,1.07 2.52,1.07 0.45,0 0.89,-0.03 1.4,-0.06 0.48,-0.03 0.83,-0.09 1.07,-0.15l0 -12.56 3.59 0 0 15.05z"/>
  <path id="_11" class="fil11" d="M262.47 388.54c1.1,0 1.96,-0.06 2.52,-0.18l0 -3.98c-0.21,-0.06 -0.48,-0.12 -0.86,-0.18 -0.39,-0.06 -0.8,-0.09 -1.25,-0.09 -0.39,0 -0.8,0.03 -1.19,0.09 -0.42,0.06 -0.77,0.18 -1.1,0.33 -0.33,0.15 -0.59,0.39 -0.8,0.65 -0.21,0.3 -0.3,0.65 -0.3,1.1 0,0.86 0.27,1.43 0.8,1.75 0.53,0.33 1.25,0.51 2.17,0.51zm-0.3 -13.39c1.19,0 2.2,0.15 3,0.45 0.8,0.3 1.45,0.71 1.96,1.25 0.48,0.53 0.83,1.19 1.04,1.93 0.21,0.77 0.3,1.6 0.3,2.52l0 9.41c-0.56,0.12 -1.4,0.27 -2.49,0.44 -1.13,0.15 -2.4,0.24 -3.8,0.24 -0.92,0 -1.78,-0.09 -2.55,-0.27 -0.77,-0.18 -1.43,-0.48 -1.96,-0.86 -0.56,-0.39 -0.98,-0.92 -1.28,-1.54 -0.33,-0.62 -0.48,-1.43 -0.48,-2.35 0,-0.89 0.18,-1.63 0.53,-2.26 0.33,-0.62 0.8,-1.13 1.4,-1.51 0.59,-0.39 1.28,-0.65 2.08,-0.83 0.77,-0.15 1.57,-0.24 2.44,-0.24 0.39,0 0.8,0.03 1.25,0.06 0.45,0.06 0.89,0.15 1.4,0.27l0 -0.59c0,-0.42 -0.06,-0.8 -0.15,-1.19 -0.09,-0.39 -0.27,-0.71 -0.51,-1.01 -0.27,-0.27 -0.59,-0.51 -0.98,-0.65 -0.42,-0.15 -0.92,-0.24 -1.54,-0.24 -0.83,0 -1.6,0.06 -2.29,0.18 -0.68,0.12 -1.25,0.27 -1.69,0.42l-0.45 -2.91c0.45,-0.15 1.13,-0.33 1.99,-0.48 0.86,-0.15 1.81,-0.24 2.79,-0.24z"/>
  <path id="_12" class="fil11" d="M281.71 378.77c-0.3,-0.09 -0.71,-0.21 -1.22,-0.33 -0.53,-0.09 -1.16,-0.15 -1.84,-0.15 -0.39,0 -0.8,0.03 -1.25,0.12 -0.45,0.09 -0.77,0.15 -0.95,0.21l0 12.44 -3.59 0 0 -14.78c0.68,-0.27 1.57,-0.51 2.61,-0.74 1.04,-0.21 2.17,-0.33 3.44,-0.33 0.24,0 0.51,0 0.83,0.03 0.33,0.03 0.62,0.09 0.95,0.12 0.33,0.06 0.62,0.12 0.92,0.18 0.3,0.09 0.53,0.15 0.71,0.21l-0.62 3.03z"/>
  <path id="_13" class="fil11" d="M283.96 383.37c0,-1.36 0.21,-2.55 0.62,-3.59 0.39,-1.04 0.92,-1.9 1.6,-2.58 0.68,-0.68 1.45,-1.19 2.31,-1.54 0.86,-0.33 1.75,-0.51 2.67,-0.51 2.14,0 3.8,0.65 5.02,1.99 1.19,1.34 1.78,3.3 1.78,5.94 0,0.21 0,0.42 0,0.65 -0.03,0.27 -0.03,0.47 -0.06,0.68l-10.24 0c0.09,1.25 0.53,2.2 1.34,2.88 0.77,0.68 1.9,1.04 3.38,1.04 0.86,0 1.66,-0.09 2.4,-0.24 0.71,-0.15 1.28,-0.33 1.69,-0.5l0.48 2.94c-0.21,0.09 -0.48,0.21 -0.8,0.3 -0.36,0.12 -0.74,0.21 -1.19,0.33 -0.45,0.09 -0.95,0.15 -1.45,0.21 -0.51,0.06 -1.04,0.09 -1.57,0.09 -1.37,0 -2.55,-0.21 -3.56,-0.62 -1.01,-0.39 -1.84,-0.95 -2.49,-1.69 -0.65,-0.71 -1.13,-1.57 -1.45,-2.55 -0.33,-0.98 -0.47,-2.05 -0.47,-3.21zm10.42 -1.6c0,-0.5 -0.06,-0.98 -0.21,-1.42 -0.15,-0.45 -0.33,-0.83 -0.59,-1.16 -0.27,-0.33 -0.59,-0.56 -0.98,-0.77 -0.39,-0.18 -0.86,-0.27 -1.4,-0.27 -0.56,0 -1.04,0.09 -1.45,0.3 -0.42,0.21 -0.77,0.51 -1.04,0.83 -0.3,0.33 -0.53,0.71 -0.68,1.16 -0.15,0.44 -0.27,0.89 -0.33,1.34l6.68 0z"/>
  <path id="_14" class="fil11" d="M308.51 371.44l3.59 -0.59 0 4.69 5.52 0 0 3 -5.52 0 0 6.32c0,1.25 0.21,2.14 0.59,2.67 0.39,0.53 1.07,0.8 2.02,0.8 0.65,0 1.25,-0.06 1.75,-0.21 0.5,-0.15 0.89,-0.27 1.19,-0.39l0.59 2.85c-0.42,0.18 -0.95,0.36 -1.63,0.56 -0.68,0.18 -1.45,0.27 -2.37,0.27 -1.1,0 -2.02,-0.15 -2.76,-0.44 -0.74,-0.3 -1.34,-0.74 -1.78,-1.31 -0.44,-0.56 -0.74,-1.25 -0.92,-2.05 -0.18,-0.8 -0.27,-1.69 -0.27,-2.73l0 -13.45z"/>
  <path id="_15" class="fil11" d="M321.1 391.06l0 -22.44 3.59 -0.59 0 7.69c0.39,-0.15 0.86,-0.27 1.4,-0.36 0.51,-0.09 1.04,-0.15 1.54,-0.15 1.25,0 2.29,0.18 3.12,0.51 0.8,0.36 1.45,0.83 1.96,1.45 0.51,0.62 0.86,1.39 1.07,2.26 0.21,0.86 0.3,1.84 0.3,2.91l0 8.73 -3.59 0 0 -8.16c0,-0.83 -0.06,-1.54 -0.15,-2.14 -0.12,-0.56 -0.3,-1.04 -0.53,-1.43 -0.27,-0.36 -0.59,-0.62 -1.01,-0.8 -0.41,-0.15 -0.92,-0.24 -1.54,-0.24 -0.48,0 -0.95,0.06 -1.45,0.15 -0.51,0.09 -0.86,0.18 -1.1,0.27l0 12.35 -3.59 0z"/>
  <path id="_16" class="fil11" d="M337.52 383.37c0,-1.36 0.21,-2.55 0.62,-3.59 0.39,-1.04 0.92,-1.9 1.6,-2.58 0.68,-0.68 1.45,-1.19 2.31,-1.54 0.86,-0.33 1.75,-0.51 2.67,-0.51 2.14,0 3.8,0.65 5.02,1.99 1.19,1.34 1.78,3.3 1.78,5.94 0,0.21 0,0.42 0,0.65 -0.03,0.27 -0.03,0.47 -0.06,0.68l-10.24 0c0.09,1.25 0.53,2.2 1.34,2.88 0.77,0.68 1.9,1.04 3.38,1.04 0.86,0 1.66,-0.09 2.4,-0.24 0.71,-0.15 1.28,-0.33 1.69,-0.5l0.48 2.94c-0.21,0.09 -0.48,0.21 -0.8,0.3 -0.36,0.12 -0.74,0.21 -1.19,0.33 -0.45,0.09 -0.95,0.15 -1.45,0.21 -0.51,0.06 -1.04,0.09 -1.57,0.09 -1.37,0 -2.55,-0.21 -3.56,-0.62 -1.01,-0.39 -1.84,-0.95 -2.49,-1.69 -0.65,-0.71 -1.13,-1.57 -1.45,-2.55 -0.33,-0.98 -0.47,-2.05 -0.47,-3.21zm10.42 -1.6c0,-0.5 -0.06,-0.98 -0.21,-1.42 -0.15,-0.45 -0.33,-0.83 -0.59,-1.16 -0.27,-0.33 -0.59,-0.56 -0.98,-0.77 -0.39,-0.18 -0.86,-0.27 -1.4,-0.27 -0.56,0 -1.04,0.09 -1.45,0.3 -0.42,0.21 -0.77,0.51 -1.04,0.83 -0.3,0.33 -0.53,0.71 -0.68,1.16 -0.15,0.44 -0.27,0.89 -0.33,1.34l6.68 0z"/>
  <path id="_17" class="fil11" d="M367.41 388.27c1.34,0 2.32,-0.24 2.94,-0.68 0.62,-0.45 0.92,-1.1 0.92,-1.93 0,-0.5 -0.09,-0.92 -0.3,-1.28 -0.21,-0.36 -0.51,-0.68 -0.89,-0.98 -0.39,-0.27 -0.86,-0.53 -1.43,-0.8 -0.56,-0.24 -1.19,-0.47 -1.9,-0.71 -0.71,-0.27 -1.39,-0.53 -2.05,-0.86 -0.68,-0.3 -1.25,-0.68 -1.75,-1.13 -0.51,-0.44 -0.92,-1.01 -1.22,-1.63 -0.33,-0.62 -0.47,-1.4 -0.47,-2.29 0,-1.87 0.65,-3.32 1.93,-4.39 1.28,-1.04 3.03,-1.57 5.26,-1.57 1.28,0 2.43,0.15 3.44,0.41 0.98,0.3 1.78,0.62 2.35,0.95l-1.16 3.03c-0.68,-0.39 -1.39,-0.65 -2.2,-0.86 -0.8,-0.21 -1.63,-0.3 -2.49,-0.3 -1.01,0 -1.78,0.21 -2.35,0.62 -0.56,0.41 -0.86,1.01 -0.86,1.75 0,0.44 0.09,0.83 0.3,1.16 0.18,0.33 0.44,0.62 0.8,0.89 0.33,0.27 0.74,0.51 1.22,0.71 0.45,0.21 0.95,0.42 1.51,0.62 0.98,0.36 1.84,0.71 2.61,1.07 0.74,0.39 1.39,0.8 1.93,1.31 0.51,0.51 0.92,1.1 1.19,1.78 0.27,0.68 0.42,1.51 0.42,2.49 0,1.87 -0.65,3.3 -1.96,4.31 -1.34,1.04 -3.27,1.54 -5.79,1.54 -0.86,0 -1.63,-0.06 -2.32,-0.15 -0.71,-0.12 -1.34,-0.27 -1.87,-0.41 -0.56,-0.15 -1.04,-0.33 -1.43,-0.51 -0.39,-0.15 -0.71,-0.3 -0.95,-0.44l1.1 -3.06c0.53,0.3 1.25,0.59 2.17,0.89 0.92,0.3 2.02,0.45 3.3,0.45z"/>
  <path id="_18" class="fil11" d="M392.32 383.29c0,1.22 -0.18,2.35 -0.53,3.35 -0.36,1.01 -0.86,1.87 -1.51,2.58 -0.65,0.71 -1.43,1.28 -2.35,1.66 -0.92,0.39 -1.96,0.59 -3.06,0.59 -1.1,0 -2.11,-0.21 -3.03,-0.59 -0.92,-0.39 -1.69,-0.95 -2.35,-1.66 -0.65,-0.71 -1.16,-1.57 -1.51,-2.58 -0.39,-1.01 -0.56,-2.14 -0.56,-3.35 0,-1.22 0.18,-2.35 0.56,-3.35 0.36,-0.98 0.86,-1.84 1.54,-2.55 0.65,-0.71 1.43,-1.28 2.35,-1.66 0.92,-0.39 1.9,-0.56 3,-0.56 1.1,0 2.11,0.18 3.03,0.56 0.92,0.39 1.69,0.95 2.35,1.66 0.65,0.71 1.16,1.57 1.54,2.55 0.36,1.01 0.53,2.14 0.53,3.35zm-3.68 0c0,-1.54 -0.33,-2.76 -0.98,-3.68 -0.68,-0.89 -1.6,-1.34 -2.79,-1.34 -1.19,0 -2.11,0.45 -2.76,1.34 -0.68,0.92 -1.01,2.14 -1.01,3.68 0,1.57 0.33,2.79 1.01,3.71 0.65,0.92 1.57,1.37 2.76,1.37 1.19,0 2.11,-0.45 2.79,-1.37 0.65,-0.92 0.98,-2.14 0.98,-3.71z"/>
  <path id="_19" class="fil11" d="M401.43 391.36c-1.07,-0.03 -1.96,-0.15 -2.64,-0.36 -0.71,-0.21 -1.28,-0.53 -1.69,-0.95 -0.41,-0.39 -0.71,-0.89 -0.86,-1.51 -0.18,-0.59 -0.27,-1.28 -0.27,-2.05l0 -17.87 3.59 -0.59 0 17.78c0,0.45 0.03,0.8 0.12,1.1 0.06,0.3 0.18,0.53 0.36,0.74 0.18,0.21 0.41,0.39 0.74,0.47 0.3,0.12 0.68,0.21 1.16,0.27l-0.5 2.97z"/>
  <path id="_20" class="fil11" d="M417.58 390.59c-0.68,0.18 -1.6,0.36 -2.7,0.56 -1.1,0.18 -2.32,0.27 -3.65,0.27 -1.25,0 -2.29,-0.18 -3.12,-0.53 -0.86,-0.36 -1.51,-0.86 -2.02,-1.48 -0.5,-0.62 -0.89,-1.4 -1.1,-2.29 -0.21,-0.86 -0.33,-1.84 -0.33,-2.88l0 -8.7 3.59 0 0 8.13c0,1.66 0.24,2.85 0.74,3.56 0.48,0.71 1.31,1.07 2.52,1.07 0.45,0 0.89,-0.03 1.4,-0.06 0.48,-0.03 0.83,-0.09 1.07,-0.15l0 -12.56 3.59 0 0 15.05z"/>
  <path id="_21" class="fil11" d="M421.98 371.44l3.59 -0.59 0 4.69 5.52 0 0 3 -5.52 0 0 6.32c0,1.25 0.21,2.14 0.59,2.67 0.39,0.53 1.07,0.8 2.02,0.8 0.65,0 1.25,-0.06 1.75,-0.21 0.5,-0.15 0.89,-0.27 1.19,-0.39l0.59 2.85c-0.42,0.18 -0.95,0.36 -1.63,0.56 -0.68,0.18 -1.45,0.27 -2.37,0.27 -1.1,0 -2.02,-0.15 -2.76,-0.44 -0.74,-0.3 -1.34,-0.74 -1.78,-1.31 -0.44,-0.56 -0.74,-1.25 -0.92,-2.05 -0.18,-0.8 -0.27,-1.69 -0.27,-2.73l0 -13.45z"/>
  <path id="_22" class="fil11" d="M438.18 391.06l-3.59 0 0 -15.53 3.59 0 0 15.53zm0.39 -20.07c0,0.68 -0.21,1.22 -0.65,1.6 -0.45,0.39 -0.95,0.59 -1.54,0.59 -0.62,0 -1.13,-0.21 -1.57,-0.59 -0.44,-0.39 -0.65,-0.92 -0.65,-1.6 0,-0.68 0.21,-1.25 0.65,-1.63 0.45,-0.39 0.95,-0.59 1.57,-0.59 0.59,0 1.1,0.21 1.54,0.59 0.45,0.39 0.65,0.95 0.65,1.63z"/>
  <path id="_23" class="fil11" d="M456.8 383.29c0,1.22 -0.18,2.35 -0.53,3.35 -0.36,1.01 -0.86,1.87 -1.51,2.58 -0.65,0.71 -1.43,1.28 -2.35,1.66 -0.92,0.39 -1.96,0.59 -3.06,0.59 -1.1,0 -2.11,-0.21 -3.03,-0.59 -0.92,-0.39 -1.69,-0.95 -2.35,-1.66 -0.65,-0.71 -1.16,-1.57 -1.51,-2.58 -0.39,-1.01 -0.56,-2.14 -0.56,-3.35 0,-1.22 0.18,-2.35 0.56,-3.35 0.36,-0.98 0.86,-1.84 1.54,-2.55 0.65,-0.71 1.43,-1.28 2.35,-1.66 0.92,-0.39 1.9,-0.56 3,-0.56 1.1,0 2.11,0.18 3.03,0.56 0.92,0.39 1.69,0.95 2.35,1.66 0.65,0.71 1.16,1.57 1.54,2.55 0.36,1.01 0.53,2.14 0.53,3.35zm-3.68 0c0,-1.54 -0.33,-2.76 -0.98,-3.68 -0.68,-0.89 -1.6,-1.34 -2.79,-1.34 -1.19,0 -2.11,0.45 -2.76,1.34 -0.68,0.92 -1.01,2.14 -1.01,3.68 0,1.57 0.33,2.79 1.01,3.71 0.65,0.92 1.57,1.37 2.76,1.37 1.19,0 2.11,-0.45 2.79,-1.37 0.65,-0.92 0.98,-2.14 0.98,-3.71z"/>
  <path id="_24" class="fil11" d="M460.51 376.04c0.68,-0.21 1.6,-0.39 2.7,-0.56 1.1,-0.18 2.35,-0.27 3.68,-0.27 1.28,0 2.32,0.18 3.18,0.51 0.86,0.36 1.54,0.83 2.05,1.45 0.51,0.62 0.86,1.39 1.07,2.26 0.21,0.89 0.3,1.87 0.3,2.91l0 8.73 -3.59 0 0 -8.16c0,-0.83 -0.06,-1.54 -0.15,-2.14 -0.12,-0.56 -0.3,-1.04 -0.53,-1.43 -0.27,-0.36 -0.59,-0.62 -1.01,-0.8 -0.44,-0.15 -0.95,-0.24 -1.57,-0.24 -0.44,0 -0.92,0.03 -1.42,0.09 -0.51,0.06 -0.86,0.12 -1.1,0.15l0 12.53 -3.59 0 0 -15.02z"/>
  <path id="_25" class="fil11" d="M481.59 387.12c0.03,0.33 0.06,0.59 0.06,0.74 0,0.15 0,0.33 0,0.48 0,1.22 -0.18,2.49 -0.56,3.8 -0.39,1.31 -0.95,2.55 -1.63,3.71l-2.82 -0.77c0.48,-1.16 0.8,-2.26 0.98,-3.35 0.15,-1.13 0.24,-2.08 0.24,-2.91 0,-0.24 0,-0.53 0,-0.89 -0.03,-0.36 -0.03,-0.62 -0.06,-0.8l3.8 0z"/>
  <path id="_26" class="fil11" d="M505.43 375.54c-1.6,5.91 -3.47,11.25 -5.58,16.03 -0.39,0.89 -0.8,1.66 -1.22,2.28 -0.41,0.62 -0.89,1.16 -1.4,1.57 -0.5,0.42 -1.1,0.71 -1.72,0.92 -0.62,0.18 -1.36,0.27 -2.2,0.27 -0.56,0 -1.1,-0.06 -1.63,-0.18 -0.56,-0.12 -0.98,-0.24 -1.25,-0.39l0.65 -2.88c0.71,0.27 1.43,0.41 2.11,0.41 0.92,0 1.66,-0.21 2.2,-0.65 0.51,-0.44 0.98,-1.16 1.37,-2.08 -1.13,-2.17 -2.2,-4.54 -3.24,-7.12 -1.04,-2.58 -1.99,-5.31 -2.79,-8.19l3.83 0c0.21,0.83 0.45,1.72 0.74,2.7 0.27,0.98 0.59,1.96 0.92,2.94 0.33,1.01 0.68,2.02 1.07,3 0.39,0.98 0.74,1.9 1.13,2.76 0.62,-1.75 1.22,-3.65 1.78,-5.64 0.56,-1.99 1.07,-3.89 1.51,-5.76l3.71 0z"/>
  <path id="_27" class="fil11" d="M522.2 383.29c0,1.22 -0.18,2.35 -0.53,3.35 -0.36,1.01 -0.86,1.87 -1.51,2.58 -0.65,0.71 -1.43,1.28 -2.35,1.66 -0.92,0.39 -1.96,0.59 -3.06,0.59 -1.1,0 -2.11,-0.21 -3.03,-0.59 -0.92,-0.39 -1.69,-0.95 -2.35,-1.66 -0.65,-0.71 -1.16,-1.57 -1.51,-2.58 -0.39,-1.01 -0.56,-2.14 -0.56,-3.35 0,-1.22 0.18,-2.35 0.56,-3.35 0.36,-0.98 0.86,-1.84 1.54,-2.55 0.65,-0.71 1.43,-1.28 2.35,-1.66 0.92,-0.39 1.9,-0.56 3,-0.56 1.1,0 2.11,0.18 3.03,0.56 0.92,0.39 1.69,0.95 2.35,1.66 0.65,0.71 1.16,1.57 1.54,2.55 0.36,1.01 0.53,2.14 0.53,3.35zm-3.68 0c0,-1.54 -0.33,-2.76 -0.98,-3.68 -0.68,-0.89 -1.6,-1.34 -2.79,-1.34 -1.19,0 -2.11,0.45 -2.76,1.34 -0.68,0.92 -1.01,2.14 -1.01,3.68 0,1.57 0.33,2.79 1.01,3.71 0.65,0.92 1.57,1.37 2.76,1.37 1.19,0 2.11,-0.45 2.79,-1.37 0.65,-0.92 0.98,-2.14 0.98,-3.71z"/>
  <path id="_28" class="fil11" d="M538.65 390.59c-0.68,0.18 -1.6,0.36 -2.7,0.56 -1.1,0.18 -2.32,0.27 -3.65,0.27 -1.25,0 -2.29,-0.18 -3.12,-0.53 -0.86,-0.36 -1.51,-0.86 -2.02,-1.48 -0.5,-0.62 -0.89,-1.4 -1.1,-2.29 -0.21,-0.86 -0.33,-1.84 -0.33,-2.88l0 -8.7 3.59 0 0 8.13c0,1.66 0.24,2.85 0.74,3.56 0.48,0.71 1.31,1.07 2.52,1.07 0.45,0 0.89,-0.03 1.4,-0.06 0.48,-0.03 0.83,-0.09 1.07,-0.15l0 -12.56 3.59 0 0 15.05z"/>
  <path id="_29" class="fil11" d="M555.6 388.54c1.1,0 1.96,-0.06 2.52,-0.18l0 -3.98c-0.21,-0.06 -0.48,-0.12 -0.86,-0.18 -0.39,-0.06 -0.8,-0.09 -1.25,-0.09 -0.39,0 -0.8,0.03 -1.19,0.09 -0.42,0.06 -0.77,0.18 -1.1,0.33 -0.33,0.15 -0.59,0.39 -0.8,0.65 -0.21,0.3 -0.3,0.65 -0.3,1.1 0,0.86 0.27,1.43 0.8,1.75 0.53,0.33 1.25,0.51 2.17,0.51zm-0.3 -13.39c1.19,0 2.2,0.15 3,0.45 0.8,0.3 1.45,0.71 1.96,1.25 0.48,0.53 0.83,1.19 1.04,1.93 0.21,0.77 0.3,1.6 0.3,2.52l0 9.41c-0.56,0.12 -1.4,0.27 -2.49,0.44 -1.13,0.15 -2.4,0.24 -3.8,0.24 -0.92,0 -1.78,-0.09 -2.55,-0.27 -0.77,-0.18 -1.43,-0.48 -1.96,-0.86 -0.56,-0.39 -0.98,-0.92 -1.28,-1.54 -0.33,-0.62 -0.48,-1.43 -0.48,-2.35 0,-0.89 0.18,-1.63 0.53,-2.26 0.33,-0.62 0.8,-1.13 1.4,-1.51 0.59,-0.39 1.28,-0.65 2.08,-0.83 0.77,-0.15 1.57,-0.24 2.44,-0.24 0.39,0 0.8,0.03 1.25,0.06 0.45,0.06 0.89,0.15 1.4,0.27l0 -0.59c0,-0.42 -0.06,-0.8 -0.15,-1.19 -0.09,-0.39 -0.27,-0.71 -0.51,-1.01 -0.27,-0.27 -0.59,-0.51 -0.98,-0.65 -0.42,-0.15 -0.92,-0.24 -1.54,-0.24 -0.83,0 -1.6,0.06 -2.29,0.18 -0.68,0.12 -1.25,0.27 -1.69,0.42l-0.45 -2.91c0.45,-0.15 1.13,-0.33 1.99,-0.48 0.86,-0.15 1.81,-0.24 2.79,-0.24z"/>
  <path id="_30" class="fil11" d="M574.84 378.77c-0.3,-0.09 -0.71,-0.21 -1.22,-0.33 -0.53,-0.09 -1.16,-0.15 -1.84,-0.15 -0.39,0 -0.8,0.03 -1.25,0.12 -0.45,0.09 -0.77,0.15 -0.95,0.21l0 12.44 -3.59 0 0 -14.78c0.68,-0.27 1.57,-0.51 2.61,-0.74 1.04,-0.21 2.17,-0.33 3.44,-0.33 0.24,0 0.51,0 0.83,0.03 0.33,0.03 0.62,0.09 0.95,0.12 0.33,0.06 0.62,0.12 0.92,0.18 0.3,0.09 0.53,0.15 0.71,0.21l-0.62 3.03z"/>
  <path id="_31" class="fil11" d="M577.09 383.37c0,-1.36 0.21,-2.55 0.62,-3.59 0.39,-1.04 0.92,-1.9 1.6,-2.58 0.68,-0.68 1.45,-1.19 2.31,-1.54 0.86,-0.33 1.75,-0.51 2.67,-0.51 2.14,0 3.8,0.65 5.02,1.99 1.19,1.34 1.78,3.3 1.78,5.94 0,0.21 0,0.42 0,0.65 -0.03,0.27 -0.03,0.47 -0.06,0.68l-10.24 0c0.09,1.25 0.53,2.2 1.34,2.88 0.77,0.68 1.9,1.04 3.38,1.04 0.86,0 1.66,-0.09 2.4,-0.24 0.71,-0.15 1.28,-0.33 1.69,-0.5l0.48 2.94c-0.21,0.09 -0.48,0.21 -0.8,0.3 -0.36,0.12 -0.74,0.21 -1.19,0.33 -0.45,0.09 -0.95,0.15 -1.45,0.21 -0.51,0.06 -1.04,0.09 -1.57,0.09 -1.37,0 -2.55,-0.21 -3.56,-0.62 -1.01,-0.39 -1.84,-0.95 -2.49,-1.69 -0.65,-0.71 -1.13,-1.57 -1.45,-2.55 -0.33,-0.98 -0.47,-2.05 -0.47,-3.21zm10.42 -1.6c0,-0.5 -0.06,-0.98 -0.21,-1.42 -0.15,-0.45 -0.33,-0.83 -0.59,-1.16 -0.27,-0.33 -0.59,-0.56 -0.98,-0.77 -0.39,-0.18 -0.86,-0.27 -1.4,-0.27 -0.56,0 -1.04,0.09 -1.45,0.3 -0.42,0.21 -0.77,0.51 -1.04,0.83 -0.3,0.33 -0.53,0.71 -0.68,1.16 -0.15,0.44 -0.27,0.89 -0.33,1.34l6.68 0z"/>
  <path id="_32" class="fil11" d="M601.64 371.44l3.59 -0.59 0 4.69 5.52 0 0 3 -5.52 0 0 6.32c0,1.25 0.21,2.14 0.59,2.67 0.39,0.53 1.07,0.8 2.02,0.8 0.65,0 1.25,-0.06 1.75,-0.21 0.5,-0.15 0.89,-0.27 1.19,-0.39l0.59 2.85c-0.42,0.18 -0.95,0.36 -1.63,0.56 -0.68,0.18 -1.45,0.27 -2.37,0.27 -1.1,0 -2.02,-0.15 -2.76,-0.44 -0.74,-0.3 -1.34,-0.74 -1.78,-1.31 -0.44,-0.56 -0.74,-1.25 -0.92,-2.05 -0.18,-0.8 -0.27,-1.69 -0.27,-2.73l0 -13.45z"/>
  <path id="_33" class="fil11" d="M614.23 391.06l0 -22.44 3.59 -0.59 0 7.69c0.39,-0.15 0.86,-0.27 1.4,-0.36 0.51,-0.09 1.04,-0.15 1.54,-0.15 1.25,0 2.29,0.18 3.12,0.51 0.8,0.36 1.45,0.83 1.96,1.45 0.51,0.62 0.86,1.39 1.07,2.26 0.21,0.86 0.3,1.84 0.3,2.91l0 8.73 -3.59 0 0 -8.16c0,-0.83 -0.06,-1.54 -0.15,-2.14 -0.12,-0.56 -0.3,-1.04 -0.53,-1.43 -0.27,-0.36 -0.59,-0.62 -1.01,-0.8 -0.41,-0.15 -0.92,-0.24 -1.54,-0.24 -0.48,0 -0.95,0.06 -1.45,0.15 -0.51,0.09 -0.86,0.18 -1.1,0.27l0 12.35 -3.59 0z"/>
  <path id="_34" class="fil11" d="M630.65 383.37c0,-1.36 0.21,-2.55 0.62,-3.59 0.39,-1.04 0.92,-1.9 1.6,-2.58 0.68,-0.68 1.45,-1.19 2.31,-1.54 0.86,-0.33 1.75,-0.51 2.67,-0.51 2.14,0 3.8,0.65 5.02,1.99 1.19,1.34 1.78,3.3 1.78,5.94 0,0.21 0,0.42 0,0.65 -0.03,0.27 -0.03,0.47 -0.06,0.68l-10.24 0c0.09,1.25 0.53,2.2 1.34,2.88 0.77,0.68 1.9,1.04 3.38,1.04 0.86,0 1.66,-0.09 2.4,-0.24 0.71,-0.15 1.28,-0.33 1.69,-0.5l0.48 2.94c-0.21,0.09 -0.48,0.21 -0.8,0.3 -0.36,0.12 -0.74,0.21 -1.19,0.33 -0.45,0.09 -0.95,0.15 -1.45,0.21 -0.51,0.06 -1.04,0.09 -1.57,0.09 -1.37,0 -2.55,-0.21 -3.56,-0.62 -1.01,-0.39 -1.84,-0.95 -2.49,-1.69 -0.65,-0.71 -1.13,-1.57 -1.45,-2.55 -0.33,-0.98 -0.47,-2.05 -0.47,-3.21zm10.42 -1.6c0,-0.5 -0.06,-0.98 -0.21,-1.42 -0.15,-0.45 -0.33,-0.83 -0.59,-1.16 -0.27,-0.33 -0.59,-0.56 -0.98,-0.77 -0.39,-0.18 -0.86,-0.27 -1.4,-0.27 -0.56,0 -1.04,0.09 -1.45,0.3 -0.42,0.21 -0.77,0.51 -1.04,0.83 -0.3,0.33 -0.53,0.71 -0.68,1.16 -0.15,0.44 -0.27,0.89 -0.33,1.34l6.68 0z"/>
  <path id="_35" class="fil11" d="M665.17 373.31c-2.11,0 -3.74,0.65 -4.84,1.96 -1.13,1.34 -1.69,3.15 -1.69,5.49 0,1.1 0.15,2.11 0.41,3.03 0.27,0.92 0.65,1.72 1.19,2.37 0.51,0.65 1.16,1.16 1.96,1.51 0.77,0.39 1.69,0.56 2.73,0.56 0.65,0 1.22,-0.03 1.69,-0.09 0.47,-0.03 0.86,-0.09 1.13,-0.18l0 -7.39 3.74 0 0 9.89c-0.51,0.21 -1.4,0.42 -2.61,0.65 -1.22,0.24 -2.64,0.36 -4.25,0.36 -1.48,0 -2.85,-0.24 -4.07,-0.71 -1.22,-0.48 -2.26,-1.16 -3.12,-2.08 -0.86,-0.92 -1.54,-2.02 -2.02,-3.35 -0.48,-1.34 -0.71,-2.85 -0.71,-4.57 0,-1.72 0.27,-3.24 0.8,-4.57 0.51,-1.34 1.22,-2.46 2.14,-3.38 0.92,-0.92 1.99,-1.6 3.21,-2.08 1.22,-0.48 2.52,-0.71 3.92,-0.71 0.95,0 1.81,0.06 2.55,0.18 0.74,0.15 1.36,0.3 1.9,0.45 0.53,0.15 0.98,0.33 1.34,0.5 0.33,0.18 0.56,0.3 0.71,0.39l-1.13 3.06c-0.59,-0.36 -1.34,-0.65 -2.2,-0.92 -0.89,-0.24 -1.81,-0.36 -2.79,-0.36z"/>
  <path id="_36" class="fil11" d="M684.5 378.77c-0.3,-0.09 -0.71,-0.21 -1.22,-0.33 -0.53,-0.09 -1.16,-0.15 -1.84,-0.15 -0.39,0 -0.8,0.03 -1.25,0.12 -0.45,0.09 -0.77,0.15 -0.95,0.21l0 12.44 -3.59 0 0 -14.78c0.68,-0.27 1.57,-0.51 2.61,-0.74 1.04,-0.21 2.17,-0.33 3.44,-0.33 0.24,0 0.51,0 0.83,0.03 0.33,0.03 0.62,0.09 0.95,0.12 0.33,0.06 0.62,0.12 0.92,0.18 0.3,0.09 0.53,0.15 0.71,0.21l-0.62 3.03z"/>
  <path id="_37" class="fil11" d="M701.66 383.29c0,1.22 -0.18,2.35 -0.53,3.35 -0.36,1.01 -0.86,1.87 -1.51,2.58 -0.65,0.71 -1.43,1.28 -2.35,1.66 -0.92,0.39 -1.96,0.59 -3.06,0.59 -1.1,0 -2.11,-0.21 -3.03,-0.59 -0.92,-0.39 -1.69,-0.95 -2.35,-1.66 -0.65,-0.71 -1.16,-1.57 -1.51,-2.58 -0.39,-1.01 -0.56,-2.14 -0.56,-3.35 0,-1.22 0.18,-2.35 0.56,-3.35 0.36,-0.98 0.86,-1.84 1.54,-2.55 0.65,-0.71 1.43,-1.28 2.35,-1.66 0.92,-0.39 1.9,-0.56 3,-0.56 1.1,0 2.11,0.18 3.03,0.56 0.92,0.39 1.69,0.95 2.35,1.66 0.65,0.71 1.16,1.57 1.54,2.55 0.36,1.01 0.53,2.14 0.53,3.35zm-3.68 0c0,-1.54 -0.33,-2.76 -0.98,-3.68 -0.68,-0.89 -1.6,-1.34 -2.79,-1.34 -1.19,0 -2.11,0.45 -2.76,1.34 -0.68,0.92 -1.01,2.14 -1.01,3.68 0,1.57 0.33,2.79 1.01,3.71 0.65,0.92 1.57,1.37 2.76,1.37 1.19,0 2.11,-0.45 2.79,-1.37 0.65,-0.92 0.98,-2.14 0.98,-3.71z"/>
  <path id="_38" class="fil11" d="M714.3 381.3c-0.44,1.75 -0.95,3.44 -1.45,5.08 -0.53,1.66 -1.07,3.24 -1.57,4.69l-2.94 0c-0.39,-0.92 -0.8,-1.96 -1.25,-3.12 -0.44,-1.16 -0.86,-2.4 -1.31,-3.74 -0.45,-1.34 -0.86,-2.73 -1.31,-4.19 -0.44,-1.45 -0.86,-2.97 -1.28,-4.48l3.8 0c0.18,0.83 0.39,1.72 0.62,2.67 0.24,0.98 0.48,1.96 0.74,2.94 0.27,1.01 0.53,1.99 0.8,2.94 0.27,0.95 0.56,1.81 0.83,2.61 0.3,-0.92 0.59,-1.84 0.89,-2.82 0.27,-0.98 0.53,-1.93 0.8,-2.91 0.27,-0.98 0.51,-1.93 0.74,-2.85 0.21,-0.92 0.42,-1.78 0.59,-2.58l2.76 0c0.18,0.8 0.39,1.66 0.59,2.58 0.21,0.92 0.45,1.87 0.71,2.85 0.24,0.98 0.5,1.93 0.8,2.91 0.27,0.98 0.56,1.9 0.86,2.82 0.27,-0.8 0.53,-1.66 0.8,-2.61 0.27,-0.95 0.56,-1.93 0.83,-2.94 0.27,-0.98 0.51,-1.96 0.74,-2.94 0.24,-0.95 0.44,-1.84 0.62,-2.67l3.71 0c-0.41,1.51 -0.83,3.03 -1.28,4.48 -0.45,1.45 -0.86,2.85 -1.31,4.19 -0.44,1.34 -0.86,2.58 -1.31,3.74 -0.44,1.16 -0.86,2.2 -1.28,3.12l-2.91 0c-0.5,-1.45 -1.04,-3.03 -1.57,-4.69 -0.56,-1.63 -1.07,-3.32 -1.51,-5.08z"/>
  <path id="_39" class="fil11" d="M728.02 371.44l3.59 -0.59 0 4.69 5.52 0 0 3 -5.52 0 0 6.32c0,1.25 0.21,2.14 0.59,2.67 0.39,0.53 1.07,0.8 2.02,0.8 0.65,0 1.25,-0.06 1.75,-0.21 0.5,-0.15 0.89,-0.27 1.19,-0.39l0.59 2.85c-0.42,0.18 -0.95,0.36 -1.63,0.56 -0.68,0.18 -1.45,0.27 -2.37,0.27 -1.1,0 -2.02,-0.15 -2.76,-0.44 -0.74,-0.3 -1.34,-0.74 -1.78,-1.31 -0.44,-0.56 -0.74,-1.25 -0.92,-2.05 -0.18,-0.8 -0.27,-1.69 -0.27,-2.73l0 -13.45z"/>
  <path id="_40" class="fil11" d="M740.61 391.06l0 -22.44 3.59 -0.59 0 7.69c0.39,-0.15 0.86,-0.27 1.4,-0.36 0.51,-0.09 1.04,-0.15 1.54,-0.15 1.25,0 2.29,0.18 3.12,0.51 0.8,0.36 1.45,0.83 1.96,1.45 0.51,0.62 0.86,1.39 1.07,2.26 0.21,0.86 0.3,1.84 0.3,2.91l0 8.73 -3.59 0 0 -8.16c0,-0.83 -0.06,-1.54 -0.15,-2.14 -0.12,-0.56 -0.3,-1.04 -0.53,-1.43 -0.27,-0.36 -0.59,-0.62 -1.01,-0.8 -0.41,-0.15 -0.92,-0.24 -1.54,-0.24 -0.48,0 -0.95,0.06 -1.45,0.15 -0.51,0.09 -0.86,0.18 -1.1,0.27l0 12.35 -3.59 0z"/>
  <path id="_41" class="fil11" d="M762.07 376.01c0,1.63 -0.06,3.15 -0.18,4.51 -0.12,1.37 -0.27,2.73 -0.45,4.13l-2.55 0c-0.21,-1.4 -0.36,-2.76 -0.47,-4.16 -0.12,-1.37 -0.18,-2.85 -0.18,-4.48l0 -5.52 3.83 0 0 5.52zm0.45 13.09c0,0.68 -0.24,1.25 -0.68,1.69 -0.45,0.44 -1.01,0.65 -1.69,0.65 -0.65,0 -1.22,-0.21 -1.66,-0.65 -0.48,-0.45 -0.71,-1.01 -0.71,-1.69 0,-0.68 0.24,-1.28 0.71,-1.72 0.44,-0.44 1.01,-0.65 1.66,-0.65 0.68,0 1.25,0.21 1.69,0.65 0.44,0.45 0.68,1.04 0.68,1.72z"/>
  <path id="_42" class="fil11" d="M770.41 368.56c0.03,0.24 0.03,0.48 0.06,0.74 0,0.27 0,0.47 -0.03,0.62 -0.03,1.19 -0.27,2.32 -0.68,3.41 -0.44,1.1 -0.95,2.08 -1.57,2.94l-2.61 -0.68c0.39,-0.86 0.71,-1.78 0.92,-2.76 0.21,-0.98 0.33,-1.9 0.33,-2.79 0,-0.15 0,-0.36 0,-0.65 -0.03,-0.3 -0.06,-0.56 -0.09,-0.83l3.68 0zm6 0c0.03,0.24 0.03,0.48 0.06,0.74 0,0.27 0,0.47 -0.03,0.62 -0.03,1.19 -0.27,2.32 -0.68,3.41 -0.45,1.1 -0.95,2.08 -1.57,2.94l-2.61 -0.68c0.39,-0.86 0.71,-1.78 0.92,-2.76 0.21,-0.98 0.33,-1.9 0.33,-2.79 0,-0.15 0,-0.36 0,-0.65 -0.03,-0.3 -0.06,-0.56 -0.09,-0.83l3.68 0z"/>
 </g>
</svg>
