<?xml version="1.0" encoding="UTF-8"?>
<!DOCTYPE svg PUBLIC "-//W3C//DTD SVG 1.1//EN" "http://www.w3.org/Graphics/SVG/1.1/DTD/svg11.dtd">
<!-- Creator: CorelDRAW -->
<svg xmlns="http://www.w3.org/2000/svg" xml:space="preserve" width="16.9675mm" height="16.9674mm" version="1.1" style="shape-rendering:geometricPrecision; text-rendering:geometricPrecision; image-rendering:optimizeQuality; fill-rule:evenodd; clip-rule:evenodd"
viewBox="0 0 4479.06 4479.03"
 xmlns:xlink="http://www.w3.org/1999/xlink"
 xmlns:xodm="http://www.corel.com/coreldraw/odm/2003">
 <defs>
  <style type="text/css">
   <![CDATA[
    .fil6 {fill:#165F9F}
    .fil4 {fill:#167B6B}
    .fil9 {fill:#3B9DF1}
    .fil8 {fill:#44B8A4}
    .fil5 {fill:#56167B}
    .fil7 {fill:#9E30DE}
    .fil2 {fill:#44B8A4;fill-rule:nonzero}
    .fil3 {fill:#5248BE;fill-rule:nonzero}
    .fil1 {fill:#7B68EA;fill-rule:nonzero}
    .fil0 {fill:url(#id0);fill-rule:nonzero}
   ]]>
  </style>
  <linearGradient id="id0" gradientUnits="userSpaceOnUse" x1="1119.75" y1="-9578.92" x2="1119.75" y2="4195.65">
   <stop offset="0" style="stop-opacity:1; stop-color:#7D57A2"/>
   <stop offset="0.988235" style="stop-opacity:1; stop-color:#00BDF2"/>
   <stop offset="1" style="stop-opacity:1; stop-color:#00BDF2"/>
  </linearGradient>
 </defs>
 <g id="Layer_x0020_1">
  <metadata id="CorelCorpID_0Corel-Layer"/>
  <path class="fil0" d="M2239.49 0c-618.53,0 -1178.45,250.67 -1583.74,656.01 -273.75,273.88 -477.12,618.34 -580.04,1003.83 -49.42,184.84 -75.71,379.28 -75.71,579.67l735.66 0c0,-134.55 17.74,-265.03 51,-389.4 69.03,-258.78 205.64,-490.02 389.5,-673.94 272.08,-272.08 648.15,-440.55 1063.33,-440.55l0 -735.63z"/>
  <path class="fil1" d="M2239.49 4479.03l2239.57 0 -656.07 -655.86c273.75,-273.85 477.01,-618.4 580.36,-1003.81 49.42,-184.86 75.71,-379.31 75.71,-579.86l-735.66 0c0,134.73 -17.74,265.19 -51,389.37 -69.11,258.78 -205.64,490.02 -389.58,673.96 -272.03,272.08 -648.07,440.53 -1063.33,440.53l0 735.66z"/>
  <path class="fil2" d="M4109.25 2239.52c0.32,-317.62 -80.62,-639.75 -250.7,-934.54 -258.22,-447.1 -673.09,-747.32 -1135.4,-871.05 -157.25,-42.08 -319.84,-63.78 -483.66,-63.96l0 735.81c99.39,0 198.12,13.17 293.54,38.78 280,75.05 531.65,257.17 688.22,528.27 103.35,178.79 152.34,374.03 152.03,566.68l735.97 0z"/>
  <path class="fil3" d="M369.81 2239.52c-0.32,317.8 80.62,639.73 250.7,934.91 257.91,446.89 673.17,746.95 1135.06,870.87 157.28,42.08 320.15,63.78 483.93,63.96l0 -735.81c-99.31,-0.18 -197.96,-13.3 -293.47,-38.86 -280.32,-75.15 -531.65,-257.12 -688.22,-528.2 -103.35,-178.79 -152.37,-374.24 -152.05,-566.87l-735.95 0z"/>
  <path class="fil4" d="M3819.75 659.18c142.76,142.76 142.76,374.22 0,517 -142.79,142.79 -374.08,142.79 -516.92,0 -142.79,-142.79 -142.79,-374.24 0,-517 142.84,-142.68 374.14,-142.68 516.92,0z"/>
  <path class="fil5" d="M659 3820.04c-142.79,-142.79 -142.79,-374.4 0,-517.19 142.76,-142.6 374.4,-142.6 517.16,0 142.79,142.79 142.79,374.4 0,517.19 -142.76,142.79 -374.4,142.79 -517.16,0z"/>
  <path class="fil6" d="M917.62 917.78c143.74,-143.79 376.7,-143.79 520.09,0 143.82,143.58 143.82,376.51 0,520.28 -143.39,143.66 -376.35,143.66 -520.09,0 -143.79,-143.76 -143.79,-376.7 0,-520.28z"/>
  <path class="fil6" d="M3561.44 3561.44c-143.82,143.66 -376.7,143.66 -520.51,0 -143.39,-143.76 -143.39,-376.7 0,-520.28 143.82,-143.66 376.7,-143.66 520.51,0 143.47,143.58 143.47,376.51 0,520.28z"/>
  <path class="fil7" d="M1227.87 4027.97c248.01,140.81 528.33,231.3 827.12,257.78l0 185.92c-382.64,-31.26 -738.35,-158.76 -1042.03,-358.14 75.39,-12.99 148.7,-41.44 214.91,-85.56zm-1034.82 -1603.86c26.69,298.69 117.21,578.98 258.01,827.07 -44.11,66.31 -72.38,139.7 -85.53,215.04 -199.41,-304 -327.04,-659.47 -358.01,-1042.11l185.52 0z"/>
  <path class="fil8" d="M3250.87 451.25c-248.09,-140.86 -528.35,-231.51 -827.12,-257.99l0 -185.71c382.64,31.23 738.27,158.76 1042.27,358.14 -75.31,12.99 -149.02,41.44 -215.14,85.56zm1035.06 1603.86c-26.61,-298.74 -117.44,-579.06 -258.01,-827.28 43.87,-66.13 72.46,-139.49 85.29,-214.96 199.3,304.13 327.04,659.47 358.25,1042.24l-185.52 0z"/>
  <path class="fil9" d="M2239.49 2384.47c-79.91,0 -144.77,-64.83 -144.77,-144.95 0,-79.93 64.86,-144.77 144.77,-144.77 79.99,0 144.74,64.83 144.74,144.77 0,80.12 -64.75,144.95 -144.74,144.95zm-451.69 0c-79.96,0 -144.74,-64.83 -144.74,-144.95 0,-79.93 64.78,-144.77 144.74,-144.77 79.99,0 144.77,64.83 144.77,144.77 0,80.12 -64.78,144.95 -144.77,144.95zm903.15 0c-79.99,0 -144.77,-64.83 -144.77,-144.95 0,-79.93 64.78,-144.77 144.77,-144.77 79.88,0 144.66,64.83 144.66,144.77 0,80.12 -64.78,144.95 -144.66,144.95z"/>
 </g>
</svg>
